<?xml version="1.0" encoding="UTF-8" standalone="no"?><svg xmlns="http://www.w3.org/2000/svg" xmlns:xlink="http://www.w3.org/1999/xlink" fill="#000000" height="85.8" preserveAspectRatio="xMidYMid meet" version="1" viewBox="25.1 17.2 65.7 85.8" width="65.7" zoomAndPan="magnify"><g id="change1_1"><path d="M82.73 17.17L44.5 21.12 25.09 43.74 32.18 68.15 25.09 100.23 53.15 102.99 79.84 90.7 79.52 74.08 64.59 74.75 71.45 50.91 90.83 42.45 77.58 35.46" fill="#ffffff"/></g><g><g opacity="0.51"><g><g fill="#ffffff" id="change2_1"><path d="M77.7,79.37C77.7,79.37,77.7,79.37,77.7,79.37c-0.08,0.27-0.06,0.51,0,0.73c-0.06-0.09-0.12-0.18-0.21-0.3 c-0.38,0.24-0.89,0.05-1.34,0.11c-0.16,1.09,0.54,2.31-0.4,3.25c-0.26-0.13-0.85,0.17-0.66-0.56c0.06-0.24-0.15-0.56-0.09-0.9 c0.54-0.98,1.07-1.95,1.55-2.94C76.95,78.99,77.32,79.21,77.7,79.37z"/><path d="M26.88,96.84c-0.2-0.08-0.3-0.12-0.43-0.17c-0.28,0.63-0.56,1.27-0.83,1.88c0.31,0.7,1,0.32,1.45,0.58 c0.29-0.61,0.53-1.21,0.32-1.96C27.29,96.9,27.08,97.01,26.88,96.84z"/><path d="M76.21,86.41c-0.16,0.08-0.21,0.31-0.26,0.3c-0.85-0.09-0.93,0.41-0.95,0.94c0.19,0.26,0.48,0.26,0.7,0.38 c0.19-0.82,1.68-0.34,1.69-1.33C77.08,86.39,76.67,86.58,76.21,86.41z"/><path d="M75.34,83.04c-0.24-0.09-0.38-0.14-0.53-0.19c-0.03,0.31-0.29,0.41-0.57,0.49 c-0.23,0.07-0.45,0.15-0.69,0.23c0,0.38,0.23,0.68,0.51,1.05c0.79-0.27,1.22-0.89,1.85-1.35 C75.72,83.19,75.59,83.13,75.34,83.04z"/><path d="M77.3,85.03c0.63,0.17,0.31-0.3,0.49-0.41c-0.2-0.08-0.39-0.15-0.58-0.23 C77.26,84.6,76.72,84.73,77.3,85.03z"/><path d="M74.33,88.2c0.14-0.12,0.15-0.23,0.13-0.24c-0.22-0.09-0.38-0.04-0.44,0.15 C74.01,88.13,74.13,88.2,74.33,88.2z"/><path d="M78.43,84.95c0.15,0.13,0.28,0.17,0.29,0.14c0.08-0.18,0-0.33-0.22-0.41 C78.47,84.67,78.41,84.77,78.43,84.95z"/><path d="M73.5,85.05c-0.08-0.13-0.21-0.2-0.22-0.03C73.28,85.05,73.4,85.1,73.5,85.05z"/><path d="M77.85,85.53c0.08,0.13,0.21,0.2,0.22,0.03C78.07,85.53,77.95,85.48,77.85,85.53z"/></g></g></g><g opacity="0.51"><g><g fill="#ffffff" id="change2_2"><path d="M59.16,25.62c0.15,0.25-0.15,0.49,0.21,0.64c0.4,0.17,0.5,0.42,0.64,0.66c0.19,0.32,0.56,0.34,0.84,0.5 c0.08,0.04,0.15,0.1,0.22,0.15c-0.07,0.19-0.13,0.38-0.2,0.56c0.63,0.3,0.93,0.96,1.59,1.03c0.31,0.73-0.06,1.17-0.21,1.75 c-0.83-0.69-0.82-1.68-2.1-1.98c0.01-0.1,0.06-0.21,0.02-0.31c-0.17-0.42-1.68-1.88-2.27-2.22c-0.11-0.07-0.33-0.06-0.25-0.25 c0.19-0.5-0.51-0.68-0.79-0.67c-0.09,0-0.16-0.02-0.24-0.03c0.09-0.12,0.18-0.25,0.26-0.37"/><path d="M79.92,41.25c-0.16-0.06-0.33-0.13-0.47-0.19c-0.48-0.38-0.08-0.51-0.29-0.73 c-0.08-0.08-0.13-0.15-0.16-0.22c-2.49-3.12-4.66-6.55-7.05-9.75c-0.77-1.03-1.53-2.06-2.29-3.09 c-0.18-0.02-0.37-0.04-0.54-0.08c-0.29-0.07-0.7-0.17-0.68-0.53c0.22-0.1,0.6,0.23,0.77,0.01c-0.19-0.25-0.37-0.51-0.56-0.76 c-0.06-0.05-0.1-0.11-0.12-0.16c-0.74-1-1.51-1.98-2.26-2.97c-0.15,0.09-0.12,0.21,0.02,0.45c0.18,0.32,0.36,0.77-0.47,0.53 c-0.08-0.02,0.05,0.35-0.32,0.19c-0.71-0.63,0.25-0.92-0.11-1.48c-0.23-0.09-0.5-0.2-0.77-0.31c0.17-0.31-0.32-0.43-0.48-0.64 c-0.19-0.27,0.06-0.52-0.25-0.83c-0.04-0.04-0.07-0.08-0.08-0.11c-0.55,0.04-1.09,0.09-1.63,0.14c-0.05,0.9-0.51,1.67-0.66,2.61 c-0.05,0.18-0.12,0.28-0.27,0.15c-0.09-0.08,0-0.18,0.15-0.2l-1.44-0.12c0.19,0.09,0.32,0.36,0.37,0.58 c0.11,0.47,0.31,0.69,0.91,1.12c-0.2,0.25-0.43,0.53-0.54,0.67c0.38,0.55,0.57,0.83,0.75,1.08c0.34,0.1,0.13-0.16,0.15-0.16 c0.42-0.11,0.5,0.15,0.52,0.25c0.03,0.17-0.22,0.32,0.25,0.47c0.25,0.08,0.57,0.14,0.7,0.41c0.43,0.85,1.27,1.56,1.94,2.32 c0.26,0.3,0.34,0.65,0.88,0.87c0.23,0.09,0.57,0.57,0.51,0.69c-0.27,0.48,0.34,0.65,0.66,0.94c0.19,0.18,0.3,0.41,0.43,0.6 c-0.11,0.31-0.21,0.6-0.33,0.92c0.14,0.06,0.29,0.17,0.41,0.18c0.55,0.05,1.06,0.23,1.64,0.51c0.53,0.43,0.58,1.09,1.4,1.52 c0.43,0.22,0.38,0.68,0.1,0.88c-0.16,0.12-0.5,0.35-0.94-0.15c-0.13-0.15-0.68-0.22-1.06-0.46c-0.66-0.42-1.35-0.51-1.88-0.15 c0.11,0.31,0.3,0.6,0.58,0.85c0.16,0.14,0.3,0.02,0.47-0.07c0.09-0.28,0.26-0.34,0.56-0.22c0.04,0.27-0.28,0.2-0.45,0.27 c0.14,0.21,0.29,0.41,0.43,0.62c0.5,0.22,0.73-0.14,1.15-0.08c0.6,0.58,1.5,0.69,2.14,1.2c0.11,0.09,0.39-0.17,0.8,0 c-0.12,0.19-0.25,0.38-0.39,0.6c0.77,0.17,1.33,0.65,2.03,0.62c0.25-0.01,0.44,0.4,0.8,0.5c0.14,0.04,0.25,0.37,0.48,0.31 c1.02-0.25,1.31,0.6,1.89,0.99c0.35,0.04,0.4-0.14,0.43-0.34c0.44,0.09,0.38,0.44,0.63,0.58c0.4,0.26,0.62-0.31,1.17,0.22 c0.43,0.42,1.22,0.63,1.74,1.12c0.14,0.13,0.33,0.2,0.53,0.24c-0.63-0.8-1.26-1.61-1.93-2.38 C79.93,41.26,79.93,41.25,79.92,41.25z M70.59,33.62c-0.24-0.42-0.58-0.07-0.87-0.29c-0.27-0.39-0.5-0.83-0.87-1.21 c-0.19-0.19-0.64-0.25-0.91-0.43c-0.34-0.22,0.12-0.57-0.18-0.68c-0.87-0.33-0.74-1.18-1.61-1.45c0.21-0.55-0.57-0.48-0.83-0.72 c0.13-0.43-0.19-0.78-0.64-1.14c-0.49-0.39-0.01-0.78-0.35-1.2c-0.31-0.13-0.62-0.27-0.89-0.39c0.05-0.24,0.09-0.47,0.14-0.7 c0.16-0.72-0.15-1.61,0.37-2.31c0.07-0.06,0.13-0.13,0.11-0.31c0.03-0.1,0.09-0.2,0.24-0.07c0.09,0.08,0,0.18-0.07,0.32 c-0.07,0.06-0.13,0.13-0.11,0.31c0.32,0.09,0.63,0.18,0.95,0.27c-0.11,0.32-0.18,0.5-0.25,0.69c0.37,0.28,1.04,0.28,1.15,0.78 c0.08,0.32,0.2,0.65,0.27,0.95c0.07,0.31-0.01,0.5,0.5,0.71c0.55,0.22-0.16,0.61,0.44,0.88c0.27-0.02,0.25-0.52,0.54-0.29 c0.36,0.3,1.25,0.24,1.13,0.9c-0.02,0.15,0.24,0.49,0.44,0.58c0.48,0.21,0.56,0.38,0.5,0.72c-0.03,0.19,0.3,0.48,0.44,0.73 c0.03,0.06-0.05,0.13-0.1,0.23c-0.16,0.13-0.45-0.14-0.54-0.13c-0.48,0.27-0.07,0.71-0.17,1.02c0.45,0.28,1.02,0.1,1.45,0.57 c0.13,0.14,0.05-0.24,0.41-0.21c0.26,0.6,0.9,1.14,1.56,1.53c0.65,0.38,0.76,1.15,1.66,1.23c-0.14,0.5,0.26,1.21-0.44,1.43 c-0.78-0.13-0.12-0.53-0.63-0.81c-0.49-0.27-1.03-0.7-1.47-0.71C71.18,34.46,70.87,34.11,70.59,33.62z M75.71,40.07 c0.08,0.14,0.3,0.35,0.06,0.37c-0.19,0.02-0.33-0.21-0.31-0.36c0.01-0.06,0.11-0.09,0.08-0.25c-0.72-0.28-1.41-0.65-2.06-0.69 c-0.38-0.27,0.02-0.41-0.24-0.61c-0.42,0.07-0.7-0.09-1.01-0.41c-0.45,0.12-0.79-0.12-1.15-0.42c0.05-0.18,0.09-0.35,0.15-0.57 c0.45,0.37,0.66,0.76,1.28,0.93c-0.28-0.77,0.25-1.41-0.31-2.21c1.03,0,1.71,0.48,2.38,1.12c0.35,0.34,0.79,0.69,1.34,0.86 c0.41-0.58,0.92,0.17,1.43,0.19c0.14,0.77-0.18,1.38,0.24,2.11C76.84,40.11,76.18,39.78,75.71,40.07z"/><path d="M66.65,49.99c0.53-0.15,1.05,0.45,1.57,0.31c0.11-0.03,0.51,0.13,0.72,0.36c0.36,0.4,0.82,0.69,1.32,0.94 c0.24-0.36,0.58-0.6,0.96-0.72c-0.46-0.25-0.95-0.45-1.41-0.62c-0.6-0.23-1.22-0.29-1.74-0.75c-0.15-0.13-0.44-0.25-0.63-0.26 c-0.72-0.01-1.12-0.49-1.6-0.84c-0.29-0.21-0.49-0.45-0.95-0.34c-0.48,0.12-0.8-0.3-0.96-0.62c-0.46-0.87-0.44-0.88-1.69-1.35 c-0.33,0.02-0.25,0.28-0.36,0.45c0.58,0.22,0.64,0.83,1.29,1.01c0.21,0.72,1.16,0.89,1.72,1.34c0.31,0.25,0.84,0.3,1.04,0.73 C66.05,49.87,66.53,50.03,66.65,49.99z"/><path d="M55.42,27.84c0.3,0.26,0.62,0.5,0.97,0.67c0.34,0.62,0,0.85-0.55,0.96c0.48,0.34,0.91,0.26,1.25,0.43 c0.77,0.29-0.19,0.9,0.84,1.2c0.25,0.07,0.44,0.52,0.69,0.78c0.19,0.2,0.75,0.11,0.72,0.44c-0.04,0.4,0.61,0.35,0.68,0.66 c0.01,0.07,0.37,0.08,0.32,0.34c-0.15,0.66,0.57,0.31,0.86,0.51c-0.14,0.12-0.28,0.25-0.41,0.36c0.11,0.13,0.18,0.33,0.35,0.32 c0.35-0.03,0.55,0.01,0.78,0.34c0.27,0.4,0.1,1.01,1.08,1.16c0.12,0.02,0.4,0.37,0.34,0.57c-0.1,0.34-0.05,0.4,0.54,0.57 c0.59,0.18,1.43,0.54,1.53,1.29c0.04,0.3,0.42,0.65,0.64,0.96c0.43-0.02,0.8,0.05,1.15,0.25c0.04,0.43-0.39,0.53-0.7,0.65 c-0.01,0.88,1.53,1.35,1.56,2.19c-0.35-0.12-0.67-0.26-0.99-0.35c-0.91-0.25-1.74-1.03-1.71-1.64c0.01-0.18-0.01-0.37-0.24-0.43 c-0.63-0.16-0.07-0.42-0.32-0.59c0.15-0.01,0.24-0.12,0.15-0.2c-0.15-0.13-0.21-0.03-0.27,0.15c-1.36-0.48-1.78-0.87-2.24-1.91 c-0.11-0.24-0.26-0.5-0.68-0.62c-0.33-0.09-0.65-0.25-0.97-0.39c-0.71-0.77-0.95-1.51-0.55-2.2c-0.49-0.2-1-0.31-1.32-0.57 c-0.21-0.17-0.71-0.3-0.63-0.52c0.18-0.54-0.54-0.72-0.85-1.07c-0.14-0.17-0.55-0.1-0.49-0.44c0.07-0.41-0.3-0.94-0.74-1.15 c-0.69-0.33-0.44-0.86-0.75-1.02c-0.6-0.31-0.55-0.61-0.58-0.92C55.08,28.4,55.26,28.13,55.42,27.84z"/><path d="M57.26,38.66c-0.04-0.43-0.06-0.77-0.09-1.1c-1.04-0.45-1.49-1.21-1.93-1.93c-0.46-0.76-0.52-0.8-1.13-1.3 c-0.38-0.31-1.2-0.56-0.88-1.11c-0.21-0.25-0.35-0.53-0.54-0.78c0.14-0.43,0.29-0.86,0.44-1.29c0.48,0.34,1.01,0.48,1.46,0.71 c0.14,0.16,0.09,0.28,0.13,0.39c0.12,0.35,0.74,0.56,0.79,0.93c0.05,0.37,0.11,0.72,0.42,1.08c0.16,0.19,0.24,0.41,0.58,0.51 c0.56,0.17-0.04,0.73,0.7,0.87c0.02,0,0.1,0.24,0.07,0.34c-0.07,0.23,0.06,0.38,0.37,0.52c0.48,0.22,0.61,0.61,0.76,0.92 c0.21,0.42,0.85,0.53,1.03,0.95c0.09,0.22-0.19,0.54,0.42,0.66c-0.22,0.4,0.4,0.89,0.09,1.34c1,0.16,1.45,0.61,1.63,1.22 c-0.71,0.14-0.71,0.14-2.11-0.46c0.22-0.13,0.44-0.27,0.74-0.46c-0.46-0.03-0.66-0.05-0.88-0.06 C58.8,39.84,58.4,39.02,57.26,38.66z"/><path d="M66.29,61.32c-0.1,0.33,0.34,0.27,0.47,0.43c0.5,0.61,0.56,1.17-0.06,1.48c-0.31,0.15-0.43,0.32-0.46,0.59 c0.22,0.09,0.43,0.17,0.64,0.26c0.01-0.03,0.03-0.07,0.05-0.11c0.17-0.7,0.35-1.39,0.52-2.09c0.06-0.31,0.12-0.61,0.19-0.92 c-0.06-0.03-0.12-0.06-0.18-0.08c-0.18-0.83-0.17-0.83-1.29-1.75c-0.12-0.1-0.3-0.15-0.41-0.25c-0.15-0.12-0.11-0.24,0.01-0.31 c0.07-0.04,0.26-0.04,0.28-0.03c0.32,0.4,0.88,0.46,1.28,0.72c0.2,0.13,0.38,0.28,0.57,0.42c0.06-0.27,0.12-0.53,0.17-0.79 c-0.01-0.01-0.02-0.02-0.03-0.03c-1.15-0.34-1.47-1.42-2.56-1.81c0.06-0.21,0.13-0.43,0.2-0.65c-0.54,0.12-1.05-0.33-1.71-0.39 c0.15,0.83,0.54,1.65,0.86,2.46c0.08,0.2-0.01,0.31,0.09,0.5c0.26,0.1,0.42,0.18,0.28,0.26c-0.08,0.05-0.25-0.06-0.31-0.18 c-0.31,0.21-0.85-0.18-1.17-0.03c-0.07,0.18-0.01,0.35,0.23,0.45c0.63,0.25,1.13,0.61,1.65,1.01 C65.97,60.76,66.41,60.95,66.29,61.32z"/><path d="M65.38,59.53c0.23,0.07,0.35,0.21,0.39,0.37c0.03,0.11-0.06,0.15-0.15,0.08 C65.5,59.89,65.42,59.78,65.38,59.53z"/><path d="M54.86,39.68c-0.38-0.19-0.84-0.24-0.77-0.59c0.09-0.45-0.18-0.8-0.74-1.11c-0.39-0.21-0.44-0.55-0.79-0.86 c-0.63-0.42-0.99-0.84-0.96-1.31c0-0.04-0.02-0.08-0.03-0.12c0.1-0.28,0.19-0.56,0.28-0.84c0.37,0.2,0.7,0.35,1.02,0.61 c0.41,0.34,0.39,0.86,0.59,0.9c0.95,0.19,0.78,0.77,1.1,1.16c0.16,0.2,0.28,0.42,0.48,0.58c0.22,0.18,0.6,0.17,0.79,0.39 c-0.02,0.37-0.33,0.44-0.62,0.56C55,39.17,54.97,39.47,54.86,39.68z"/><path d="M72.17,45.59c0.41,0.19,0.35,0.6,0.8,0.7c0.06-0.19,0.08-0.4,0.46-0.35c0.39,0.2,0.42,0.53,0.67,0.8 c0.56,0.21,1.11,0.07,1.76,0.38c0.03-0.23,0.05-0.46,0.08-0.67c0.3,0.08,0.47,0.21,0.46,0.31c-0.04,0.28,0,0.55,0.26,0.83 c0.57,0.17,1.16,0.25,1.73,0.42c0.09-0.28,0.19-0.55,0.3-0.82c-0.43-0.18-0.87-0.34-1.3-0.08c-0.05,0.18-0.12,0.28-0.27,0.15 c-0.09-0.08,0-0.18,0.15-0.2c-0.14-0.21-0.27-0.42-0.43-0.62c-0.19-0.24-0.19-0.15-0.97-0.26c-0.46-0.07-0.98-0.03-1.52-0.43 c-0.57-0.42-1.32-0.64-2.04-0.61C71.98,45.16,71.85,45.45,72.17,45.59z"/><path d="M45.68,95.54c0.01-0.01,0.01-0.01,0.02-0.02c0.39,0.27,0.87,0.2,1.29,0.31c0.63,0.17,0.82,0.81,1.3,0.85 c0.42,0.04,0.74,0.23,1.1,0.32c0.2,0.05,0.37-0.09,0.52,0.06c1.23,0.91-0.66,0.97-0.07,1.71c0.35,0.18,0.7,0.39,1.06,0.24 c0.29-0.12,0.49,0.03,0.62,0.29c0.19,0.37,0.68,0.37,0.97,0.59c0.24,0.18-0.12,0.43,0.41,0.72c0.71,0.39,0.7,0.5,0.94,1.2 c-0.21,0.03-0.41,0.15-0.5,0.01c-0.39-0.56-0.91-0.82-1.61-0.83c-0.14,0-0.32-0.1-0.46-0.15c0.01-0.32,0.33-0.5,0.1-0.84 c-0.29-0.17-0.56-0.32-0.92-0.32c-0.69-0.02-1.2-0.5-1.77-0.82c-0.26-0.15,0.11-0.27-0.08-0.38c-0.25-0.14-0.55-0.21-0.8-0.34 c-0.13-0.07-0.24-0.22-0.16-0.38c0.09-0.17,0.61-0.01,0.61-0.12c-0.44-0.17-0.82-0.32-1.17-0.45c0,0.07-0.12,0.16-0.39,0.17 c-0.42-0.23-0.52-0.69-1.06-0.88c-0.06-0.02-0.13-0.1-0.21-0.15C45.58,96.09,45.67,95.83,45.68,95.54z"/><path d="M55.62,88.17c-0.16-0.15-0.01-0.23-0.02-0.45c-0.48,0.05-1.01-0.39-1.37-0.35 c-0.62,0.06-0.79-0.52-1.28-0.57c-0.42-0.04-0.67-0.47-0.63-0.6c0.1-0.32-0.06-0.42-0.43-0.54c-0.36-0.12-0.5-0.02-0.54,0.2 c-0.02,0.15-0.21,0.13-0.4,0.19c0.8,0.86,1.72,1.67,2.94,2.23c0.06-0.21,0.09-0.42,0.45-0.36c0.73,0.83,0.73,0.83,2.74,1.66 c0.1,0.04,0.21,0.09,0.28,0.15c0.26,0.25,0.25,0.62,0.72,0.78c0.38,0.13,0.71,0.31,0.97,0.59c0.26-0.04,0.15-0.44,0.58-0.31 c0.38,0.12-0.21,0.32,0.23,0.46c0.26,0.08,0.64,0.2,0.74,0.36c0.48,0.69,1.64,0.98,1.91,1.77c0.65,0.3,0.99,0.98,1.78,1.09 c0.4,0.06,0.47,0.43,0.82,0.52c0.06-0.17,0.03-0.42,0.45-0.17c0.04-0.38,0.13-0.75,0.1-1.14c-0.02-0.28-0.41-0.51-0.73-0.54 c-0.73-0.07-1.27-0.52-1.83-0.85c-0.42-0.24-0.74-0.47-1.12-0.34c-0.41-0.26-0.48-0.59-0.77-0.9c-0.13-0.22-0.56,0.27-0.63-0.2 c-0.06-0.45-0.54-0.36-0.82-0.52c-0.29-0.17-0.64-0.27-0.98-0.41c-0.2-0.42-0.54-0.78-1.05-1.07c0,0-1.96-0.69-1.99-0.61 c-0.05,0.18-0.12,0.28-0.27,0.15C55.38,88.29,55.47,88.18,55.62,88.17z"/><path d="M56.67,73.87c-0.01-0.14-0.15-0.37-0.18-0.37c-0.8,0.03-1.55-0.66-2.4-0.6c-0.35-0.63-0.78-1.24-1.76-1.46 c-0.25-0.05-0.41-0.19-0.49-0.38c-0.14-0.33-0.62-0.51-0.8-0.48c-0.57,0.08-0.49-0.16-0.56-0.42c-0.01-0.05-0.3-0.13-0.53-0.22 c-0.35,0.35-0.11,1.1-1.03,1.07c0.2,0.28,0.49,0.29,0.71,0.41c0.05-0.17,0.02-0.37,0.46-0.18c0.46,0.19,0.58,0.49,0.74,0.76 c0.33,0.55,0.72,0.95,1.52,0.9c0.18-0.01,0.41,0.08,0.61,0.12c-0.09,0.39-0.47,0.27-0.65,0.45c0.02,0.19,0.05,0.44,0.08,0.74 c0.42-0.09,1.18,0.11,0.67-0.72c0.2,0.17,0.4,0.35,0.6,0.53c0.01-0.02-0.06,0.16-0.13,0.37c0.41,0.34,1.03,0.34,1.42,0.7 c0.36,0.41-0.36,0.27-0.28,0.53c0.57,0.18,1.12,0.07,1.7,0.33c0.07-0.37-0.19-0.63-0.69-0.82c0-0.07-0.01-0.14,0.01-0.2 c0.09-0.26,0.18-0.52,0.27-0.77C56.06,73.93,56.74,74.33,56.67,73.87z"/><path d="M50.16,52.08c-0.15,0.35-0.25,0.61-0.4,0.8c-0.14-0.34-0.82-0.48-0.6-0.86c0.04-0.06-0.15-0.27-0.34-0.28 c-0.21-0.02-0.31,0.06-0.34,0.25c-0.11,0.73-0.17,0.75-0.95,0.47c0.13-0.36,0.26-0.72,0.39-1.1c0.22,0.1,0.48,0.24,0.8,0.03 c-0.78-0.63-1.08-1.53-2.16-2.02c0.14-0.36,0.28-0.71,0.41-1.07c0.12,0.46,0.72,0.6,1.18,0.84c-0.19,0.23-0.65,0.3-0.53,0.52 c0.33,0.23,0.51,0.35,0.68,0.47c0.09-0.28-0.39-0.74,0.37-0.62c0.43,0.47,0.86,0.96,0.74,1.48c0.49,0.43,1.22,0.41,1.55,0.8 c-0.01,0.25-0.02,0.44-0.03,0.61C50.55,52.29,50.28,52.07,50.16,52.08z"/><path d="M54.95,67.12c0.17,0.07,0.24,0.08,0.27,0.11c0.67,0.72,1.58,1.35,2.04,2.19c-0.45-0.01-0.44-0.38-0.75-0.42 c-0.12,0.26,0.17,0.47,0.38,0.69c0.31,0.12,0.46-0.08,0.73-0.07c0.09,0.05,0.23,0.11,0.26,0.17c0.43,0.81,1.5,1.27,2.09,2.01 c0.3,0.38,0.83,0.28,1.13-0.22c-0.41-0.21-0.84-0.41-1.23-0.65c-0.45-0.28-0.53-0.77-0.83-0.86c-0.72-0.21-0.44-0.72-0.72-0.85 c-0.69-0.3-0.19-0.61-0.53-0.97c-0.52-0.07-1.17-0.1-1.5-0.75c-0.23-0.45-0.61-0.9-0.86-1.26c-0.57-0.3-1.02-0.28-1.46-0.36 c-0.12,0.24,0.38,0.46,0.28,0.72C54.08,67,54.66,66.9,54.95,67.12z"/><path d="M67.5,42.92c-0.77-0.43-1.63-0.55-2.2-0.79c-0.17,0.26-0.34,0.51-0.49,0.73c0.9,0.93,1.02-0.23,1.67,0.09 c0.21,0.14,0.27,0.28,0.2,0.45c-0.13,0.32,0.26,0.4,0.53,0.58c0.33,0.22,0.39-0.57,0.86,0.12c0.18,0.26,0.94,0.52,1.39,0.57 c0.48,0.05,0.75,0.3,1.11,0.47c0.58,0.27,0.67,0.23,1.16-0.43c-1.28-0.32-2.3-1.22-3.6-1.46c-0.16-0.03-0.33-0.24-0.52-0.29 c-0.09,0.28-0.26,0.34-0.56,0.22C67.01,42.92,67.33,42.99,67.5,42.92z"/><path d="M60.58,88.21c0.06,0.2,0.03,0.27-0.02,0.44c0.68,0.3,1.39,0.28,2.23,0.76c-0.04-0.36-0.06-0.57-0.09-0.8 c-0.21-0.11-0.62-0.22-1.04-0.2c-0.51-0.07,0.51-0.8-0.57-0.64c-0.17,0.03-0.65-0.36-0.89-0.6c-0.22-0.22-0.63-0.41-0.71-0.37 c-0.86,0.41-1.11-0.6-1.72-0.73c-0.24-0.6-0.92-0.69-1.47-0.92c-0.14,0.73-0.14,0.74,0.65,1.14c0.26,0.13,0.45,0.3,0.67,0.44 c0.52,0.33,1,0.75,1.74,0.76C59.67,87.48,60.26,87.66,60.58,88.21z"/><path d="M73.75,43.75c1.53,0.3,2.71,1.08,3.95,1.82c0.08-0.3,0.16-0.56,0.24-0.85c-0.91-0.37-2.24-0.23-2.53-1.37 c-0.49-0.26-0.65,0.11-1.05-0.08c0.02-0.09,0.03-0.19,0.05-0.31c-0.7-0.39-1.57-0.51-2.19-1.1c-0.04,0.11-0.04,0.28-0.14,0.3 c-0.67,0.16-0.18,0.62,0.11,0.74C72.72,43.13,73.1,43.52,73.75,43.75z"/><path d="M67.49,80.01c-0.48,0.19-1.06,0.19-1.03,0.71c0.4,0.28,1.02,0.43,1.11,0.17c0.17-0.48,0.87-0.35,1.2-0.65 c0.3-0.27,0.33-0.67,0.6-0.91c0.55,0.14,1.14,0.33,1.04-0.24c-0.06-0.34,0.03-0.56,0.27-0.76c0.14-0.12,0.2-0.34-0.14-0.59 c-0.27,0.08-0.93-0.19-0.64,0.42c0.17,0.34-0.31,0.46-0.39,0.48C68.55,78.82,68.21,79.52,67.49,80.01z"/><path d="M58.21,57.96c-0.8-0.59-1.53-0.65-2.34-0.67c0.14,0.34,0.47,0.34,0.67,0.43c0.6,0.28,1.15,0.52,1.67,1 c0.38,0.35,0.86,1.01,1.71,0.94c0.19-0.02,0.31,0.22,0.29,0.41c-0.04,0.38,0.47,0.52,0.77,0.7c0.11,0.07,0.66-0.01,0.57-0.19 c-0.15-0.26,0.2-0.52-0.4-0.82c-0.64-0.32-1.04-0.93-1.93-0.97C58.91,58.78,58.53,58.29,58.21,57.96z"/><path d="M59.58,57.08c0.82,0.95,1.22,1.1,2.17,0.87c0.04-0.46-0.6-0.62-0.99-1.02c0.11-0.15,0.25-0.34,0.39-0.53 c-0.61-0.22-0.82-0.72-1.41-0.72c-0.11,0.2-0.56,0.25-0.51,0.59c-0.21-0.02-0.3-0.12-0.39-0.24c-0.05-0.07-0.19-0.16-0.26-0.16 c-0.14,0-0.41,0.04-0.32,0.14c0.25,0.26-0.2,0.51,0.28,0.72c0.14,0.06,0.34,0.28,0.49,0.05C59.26,56.43,59.35,56.84,59.58,57.08 z"/><path d="M58.08,47.34c-0.12,0.15-0.13,0.33-0.05,0.37c0.42,0.23,0.55,0.39,0.64,0.81c0.08,0.39-0.36,0.37-0.3,0.67 c0.24,0.32,0.74,0.51,1.02,0.91c0.44,0.61,0.95,0.59,1.24,0c-0.29-0.24-0.76-0.21-0.92-0.43c0.14-0.38,0.25-0.7,0.34-0.94 c-0.37-0.37-0.88-0.42-0.75-0.74c0.12-0.3,0.53,0.01,0.79-0.01c-0.01-0.23-0.15-0.5-0.46-0.41 C59.12,47.73,58.69,47.48,58.08,47.34z"/><path d="M66.54,81.95c0.09-0.26,0.22-0.42-0.06-0.65c-1.33,0.12-2.31,0.63-2.89,1.54c0.38,0.11,0.75,0.22,1.16,0.34 c0.26-0.27,0.64-0.53,1.41-0.23c0.17-0.32-0.4-0.61-0.41-0.96C65.89,81.78,66.36,82.31,66.54,81.95z"/><path d="M54.79,42.24c-0.05,0.15-0.08,0.22-0.12,0.34c-0.55-0.21-1.13-0.59-1.71-0.43 c0.91,1.16,1.46,1.59,2.69,2.07c0.06-0.59-0.25-1.26,0.09-1.7C55.42,42.17,55.15,42.02,54.79,42.24z"/><path d="M66.65,76.31c-0.38-0.03-0.67-0.26-1.07-0.38c-0.33,0.28,0.17,0.97-0.65,1.09 c-0.57,0.08-0.36,0.88-1.05,1.01c-0.2,0.04-0.16,0.09-0.13,0.72c0.32,0.19,0.51,0.04,0.73-0.01c0.37-0.08-0.35-0.61,0.24-0.64 c0.28-0.02,0.6-0.03,0.71-0.3c0.09-0.23,0.46-0.32,0.48-0.62c0-0.07-0.06-0.23,0.24-0.15C67.01,77.26,66.91,76.84,66.65,76.31z"/><path d="M63.1,64.07c0.21,0.41-0.51,0.36-0.43,0.61c0.59,0.24,1.13,0.46,1.69,0.69c0.09-0.14,0.1-0.43-0.24-0.78 c-0.38-0.39,0-0.6,0.03-0.91c-0.6-0.03-0.55-0.57-0.99-0.76c-0.68,0.06-0.99,0.41-1.16,0.95c0.31,0.16,0.61,0.35,0.99,0.15 c0.05-0.18,0.12-0.28,0.27-0.15C63.34,63.95,63.25,64.06,63.1,64.07z"/><path d="M52.59,75.57c-0.47-1.28-1.53-1-2.51-1.12c-0.03,0.26-0.07,0.53-0.12,0.88c0.37,0.38,0.82,0.03,1.32,0.14 c-0.03,0.12-0.06,0.22-0.09,0.35c0.36,0.13,0.74,0.26,1.26,0.45C52.49,76.1,52.53,75.87,52.59,75.57z"/><path d="M53.68,68.85c0.13,0.25,0.18,0.4-0.01,0.62c0.51,0.21,0.99,0.4,1.46,0.59c-0.01,0.67,0.62,0.94,1.23,1.24 c0.58-0.41,0.02-0.99-0.38-1.32C55.36,69.47,54.81,68.63,53.68,68.85z"/><path d="M55.2,92.3c0.87-0.02,0.07-0.63,0.43-0.78c-0.64-0.37-1.54-0.43-1.79-1.14c-0.68-0.07-0.92,0.19-0.86,0.58 c0.04,0.28,0.34,0.56,0.8,0.68C54.26,91.76,54.53,92.25,55.2,92.3z"/><path d="M45.35,66.9c0.3,0.21,0.52,0.3,0.73,0.39c0.25-0.25,0.27-0.61-0.11-0.88c-0.82-0.58-1.45-1.39-2.61-1.62 c-0.06,0.13-0.14,0.29-0.26,0.53C44.05,65.67,44.48,66.37,45.35,66.9z"/><path d="M48.77,91.43c0.07,0.22,0.18,0.39,0.13,0.61c-0.05,0.27,0.17,0.54,0.61,0.73c0.67,0.28,1.33,0.56,2.05,0.54 c0.03-0.07,0.08-0.22,0.15-0.43c-0.48-0.16-0.96-0.31-1.26-0.41c-0.47-0.38-0.06-0.57-0.36-0.9 C49.71,91.52,49.26,91.35,48.77,91.43z"/><path d="M65.49,33.5c0.13-0.39-0.74-0.33-0.56-0.76c0.07-0.16-0.51-0.25-0.88-0.47c0.12-0.16,0.26-0.34,0.43-0.56 c-1.14-0.19-0.51-0.72-0.88-1.03c-0.38-0.15-0.59-0.01-0.81,0.11c-0.13,0.42,0.62,0.38,0.74,0.77c0.02,0.25-0.57,0.27-0.45,0.66 c0.07,0.04,0.15,0.1,0.23,0.14c0.64,0.26,1.23,0.52,1.3,1.16c0.02,0.21,0.48,0.23,0.72,0.38C65.38,33.79,65.42,33.68,65.49,33.5 z"/><path d="M58.43,72.97c-0.25,0.02-0.44-0.17-0.64-0.21c0.1,0.6-0.81,0.58-0.97,1.08c0.09,0.64,0.73,0.36,1.2,0.64 c-0.03-0.27-0.07-0.51-0.11-0.88c0.75,0.48,0.91,1.02,1.56,1.05c0.1-0.65,0.1-0.65-0.75-0.99 C58.22,73.46,58.4,73.24,58.43,72.97z"/><path d="M47.12,55.34c0.35,0.16,0.56,0.16,0.64,0.01c0.25-0.43,0.26-0.93,0.07-1.47c-0.61-0.51-1.17-0.09-1.77-0.36 c0.16,0.31-0.17,0.63,0.5,0.92C46.96,54.62,46.69,55.02,47.12,55.34z"/><path d="M51.12,69.06c-0.57-0.69-1.07-1.23-1.89-1.59c-0.31-0.14-0.26-0.66-0.95-0.64 c0.58,0.83,0.94,1.71,2.31,2.29c-0.13,0.18-0.26,0.36-0.39,0.55c0.27,0.11,0.43,0.18,0.59,0.24c0.13,0.08,0.16,0.05,0.19-0.06 C51.03,69.62,51.13,69.41,51.12,69.06z"/><path d="M48.15,68.21c-1.02-0.77-1.02-0.77-1.54-0.09c0.4,0.39,0.89,0.66,1.58,0.9c-0.18,0.17-0.36,0.33-0.53,0.49 c0.5,0.21,0.74,0.31,0.95,0.4c0.72-0.17,0.15-0.78,0.34-1.1C48.68,68.63,48.22,68.67,48.15,68.21z"/><path d="M56.85,95.74c-0.5-0.03-0.45,0.26-0.55,0.44c0.54,0.55,1.47,0.67,1.95,1.35c0.21,0.3,0.81,0.32,1.24,0.11 c-0.63-0.6-1.47-1.1-1.81-1.78C57.36,95.83,57.16,95.81,56.85,95.74z"/><path d="M59.73,62.52c-0.67-0.14-0.32-0.69-0.8-0.77c-0.53-0.09-0.45-0.36-0.51-0.63c-0.08-0.42-0.77-0.53-1-0.94 c-0.21-0.38-0.79-0.36-1.18-0.6c-0.24,0.24,0.17,0.6,0.29,0.63c1.11,0.31,1.37,1.06,1.75,1.69c0.39,0.63,0.96,0.94,1.69,1.13 c0.13,0.04,0.29-0.04,0.29-0.19C60.12,62.78,59.97,62.71,59.73,62.52z"/><path d="M49.8,47.25c-0.29,0.03-0.65-0.01-0.8,0.21c0.72,0.41,1.32,0.87,1.68,1.51c0.38,0.66,0.75,0.95,1.16,1.25 c0.24,0.18,0.41,0.2,0.55,0.12c0.18-0.1,0.07-0.3-0.13-0.42c-0.18-0.11-0.51-0.17-0.51-0.35c0-0.51,0.02-0.98-1-0.99 c-0.04,0-0.2-0.19-0.18-0.22C50.99,47.85,49.99,47.68,49.8,47.25z"/><path d="M52.78,77.26c-0.29-0.03-0.55-0.18-0.78-0.02c-0.12,0.56,0.74,0.72,1.04,1.12c0.4-0.15,0.19-0.49,0.13-0.85 c0.38,0.23,0.65,0.56,1.11,0.62c0.05-0.28,0.1-0.58,0.16-0.95c-0.35-0.47-0.97-0.22-1.48-0.44 C52.91,76.89,52.86,77.03,52.78,77.26z"/><path d="M66.74,51.66c0.25-0.1,0.39-0.24,0.53-0.4c-1.43-0.76-2.58-1.38-3.82-2.04c0.26,0.95,1.27,1.37,2.07,1.92 C66.04,50.95,66.2,51.61,66.74,51.66z"/><path d="M65.26,55.81c0.46,0.18,0.6,0.49,0.89,0.63c0.48,0.07,0.35-0.28,0.52-0.45c-0.55-0.41-1.47-0.41-1.72-1.1 c-0.68-0.14-1.1-0.73-1.77-0.9c-0.11,0.22-0.22,0.43,0.02,0.77c0.28,0.4,0.66,0.09,0.82,0.28 C64.34,55.42,64.78,55.49,65.26,55.81z"/><path d="M51.57,61.18c0.65-0.07,0.91-0.27,0.82-0.72c-0.27-0.3-0.61-0.46-0.99-0.39c-0.3,0.06-0.46,0.09-0.8-0.24 c-0.33-0.31-0.92-0.43-1.3-0.06c0.27,0.52,0.8,0.52,1.3,0.56C50.99,60.58,50.92,61.03,51.57,61.18z"/><path d="M73.42,49.43c0.22-0.03,0.53,0.05,0.84,0.18c0.18-0.1,0.38-0.18,0.59-0.2c-0.34-0.19-0.71-0.32-1.13-0.39 c-0.68-0.11-1.2-0.42-1.73-0.78c-0.4,0.01-0.28,0.34-0.52,0.56c0.28,0.09,0.5,0.13,0.7,0.22 C72.57,49.22,72.83,49.51,73.42,49.43z"/><path d="M63.51,61.46c-0.34,0.09-0.83-0.15-0.83-0.14c-0.12,0.54-1.38,0.03-1.3,0.73c1.01,0.61,1.01,0.61,2.86-0.09 C64.18,61.68,63.88,61.61,63.51,61.46z"/><path d="M63.46,43.25c-0.67-0.49-0.97-1.1-1.72-1.32c-0.12,0.36-0.23,0.73-0.35,1.1c0.31,0.18,0.65,0.31,0.86-0.04 c0.47,0.35-0.21,1.15,1.05,1.08C63.36,43.89,63.45,43.63,63.46,43.25z"/><path d="M44.04,60.86c0.23-0.4,0.58-0.7,0.55-1.16c-0.21-0.09-0.42-0.17-0.71-0.24c-0.03,0.56-0.62,0.64-1.03,0.86 c-0.04,0.33,0.54,0.64,0.44,0.95c-0.11,0.32,0.11,0.54,0.46,0.78C44.03,61.72,44.06,61.32,44.04,60.86z"/><path d="M68.39,40.41c-0.3-0.21-0.51-0.3-0.8-0.41c-0.06,0.17-0.13,0.33-0.21,0.55c1.16,0.57,2.25,1.1,3.36,1.65 c0.06-0.15,0.12-0.29,0.18-0.44c-0.34-0.29-0.91-0.29-1.16-0.76C69.51,40.54,68.92,40.67,68.39,40.41z"/><path d="M63.02,83.03c-0.15-0.26-0.16-0.51-0.56-0.69c-0.8,0.42-0.52,1.22-0.41,1.95c0.05,0.35,0.47,0.38,0.8,0.55 C63.28,84.37,62.62,83.59,63.02,83.03z"/><path d="M48.02,58.31c0.2,0.67,0.89,0.78,1.44,1.03c0.31-0.46-0.07-1.08,0.03-1.59c-0.44-0.19-0.95-0.49-1.05,0.09 C48.41,58.02,48.38,58.23,48.02,58.31z"/><path d="M53.24,65.13c0.04-0.06,0.02-0.12-0.01-0.13c-1.61-0.7-1.73-0.66-1.88,0.62 C52.38,66.02,52.95,65.83,53.24,65.13z"/><path d="M53.42,40.97c0.11-0.41-0.38-0.44-0.48-0.44c-0.44-0.01-0.84-0.18-1.29-0.36c0.03,0.21-0.56,0.32,0.16,0.61 c0.27,0.11,0.46,0.41,0.41,0.56c-0.17,0.64,0.49,0.38,0.85,0.63C53.19,41.61,53.29,41.33,53.42,40.97z"/><path d="M60.1,45.16c-0.3-0.39-0.18-0.74-0.18-1.06c0-0.33-0.13-0.55-0.54-0.82c-0.37,0.16-0.51,0.54-1.06,0.56 c0.23,0.33,0.42,0.6,0.62,0.89C59.28,44.87,59.66,45.02,60.1,45.16z"/><path d="M56.92,41.04c-0.69,0.54-0.68,0.75,0.2,1.13c0.38,0.16,0.57,0.69,1.19,0.5c0-0.45-0.73-0.97-0.39-1.44 C57.53,41.17,57.28,41.13,56.92,41.04z"/><path d="M64.56,68.06c0.22,0.32,0.36,0.52,0.49,0.71c0.62-0.04,0.78-0.42,0.48-0.66c-0.49-0.4,1.05-0.22-0.01-0.66 c-0.41-0.17-0.33-0.67-0.83-0.86C64.45,66.99,64.78,67.56,64.56,68.06z"/><path d="M73.19,80.53c-0.35,0.49-1.04,0.74-0.66,1.46c1.21,0.29,0.67-1.01,1.78-0.81 C73.96,80.83,74.02,80.32,73.19,80.53z"/><path d="M53.88,94.54c0.17-0.1,0.22-0.25,0.28-0.41c-0.85-0.35-1.72-0.93-2.48-0.39c0.43,0.43,0.43,0.43,1.29,0.78 C53.01,93.97,53.48,94.45,53.88,94.54z"/><path d="M51.3,54.98c0.85-0.39,0.85-0.39,0.25-1.34c-0.37,0.44-1.21,0.45-1.16,1.11 C50.67,55.05,50.94,55.21,51.3,54.98z"/><path d="M61.75,80.72c0.06-0.32,0.38-0.27,0.58-0.35c0.57-0.22,0.58-0.28,0.18-1.04c-0.31-0.17-0.53-0.06-0.71,0.02 c-0.37,0.16-0.15,0.54-0.12,0.84c-0.51-0.16-0.61,0.04-0.59,0.35C61.3,80.63,61.51,80.71,61.75,80.72z"/><path d="M57.56,99.61c-0.55,0.28-0.77-0.58-1.16-0.39c-0.47,0.12,0.19,0.57-0.33,0.81 c0.46,0.13,0.77,0.23,1.08,0.31c0.33,0.08,0.33,0.08,1.14-0.23C58.22,99.84,57.93,99.76,57.56,99.61z"/><path d="M46.1,97.84c-0.55-0.22-0.86-0.11-1.17-0.02c0.49,0.98,0.61,1.02,1.87,0.63 C46.66,98.22,46.63,97.95,46.1,97.84z"/><path d="M57.27,46.29c0.09-0.26,0.16-0.45,0.2-0.55c-0.49-0.2-1-0.4-1.51-0.61c-0.21,0.53-0.17,0.61,0.64,0.98 C56.81,46.21,57.03,46.28,57.27,46.29z"/><path d="M60.3,85.51c0.01-0.4-0.53-0.44-0.71-0.86c-0.37,0.65,0.36,1.41-0.07,1.87c0.52,0.29,0.65-0.02,0.94,0.06 C60.54,86.22,59.89,85.85,60.3,85.51z"/><path d="M52.68,56.25c0.21-0.39,0.92-0.33,0.77-0.86c-0.4-0.29-0.89-0.13-1.34-0.36c-0.39,0.25,0.11,0.74-0.17,1 C52.23,56.16,52.44,56.25,52.68,56.25z"/><path d="M61.09,84.75c-0.01,0.73-0.02,0.73,0.89,1.17c0.18-0.53,0.27-1.04-0.35-1.61 C61.19,84.29,61.18,84.5,61.09,84.75z"/><path d="M65.98,53.05c-0.25,0.65,0.65,0.81,0.99,1.22c0.21-0.05,0.39-0.09,0.58-0.13 C67.7,53.76,67,53.21,65.98,53.05z"/><path d="M70.42,47.95c0.22,0.09,0.33,0.13,0.47,0.19c0.28,0.03,0.1-0.23,0.23-0.3c-0.74-0.57-0.74-0.57-1.59-0.78 c-0.04,0.25-0.09,0.51-0.14,0.84C69.72,48.26,69.98,47.94,70.42,47.95z"/><path d="M72.6,76.7c0.17,0.43,0.54,0.51,0.95,0.59c0.65-0.4,0.08-0.87-0.27-1.35C72.62,75.95,72.8,76.4,72.6,76.7z"/><path d="M47.32,63.58c0.48,0.19,0.88,0.26,1.38,0.34c-0.09-0.56-0.37-0.97-1.14-1.22 C47.61,63.02,46.76,62.93,47.32,63.58z"/><path d="M66.57,76.18c0.85,0.04,0.94-0.44,1-0.91c-0.15-0.3-0.47-0.32-0.83-0.51 C66.7,75.23,66.22,75.54,66.57,76.18z"/><path d="M61.7,79c0.62-0.47,0.62-0.47-0.22-1.34c-0.6,0.22-0.31,0.73-0.2,1.17C61.29,78.86,61.48,78.91,61.7,79z"/><path d="M64.84,87.25c-0.55-0.27-1-0.6-1.47-0.58c-0.14,0.26-0.02,0.43,0.31,0.55c0.48,0.18,0.39,0.4,0.29,0.65 C64.69,88.08,64.84,87.76,64.84,87.25z"/><path d="M63.56,56.19c-0.18-0.24-0.21-0.41-0.42-0.43c-0.49-0.05-0.73,0.14-0.78,0.5c0.35,0.27,0.69,0.58,1.28,0.76 C63.72,56.81,63.91,56.63,63.56,56.19z"/><path d="M44.18,60.82c0.28,0.49,0.62,0.94,1.09,0.34c0.04-0.05,0.29,0.01,0.43,0.06c0.61,0.22,0.51-0.18,0.64-0.4 c-0.15-0.21-0.45-0.26-0.66-0.32c-0.21-0.06-0.33,0.08-0.37,0.25C45.19,61.27,44.48,60.5,44.18,60.82z"/><path d="M46.45,66c0.51,0.15,0.91,0.52,1.31,0.34c0.37-0.35-0.91-0.51-0.47-0.87c-0.38-0.17-0.76-0.33-1.15-0.5 C46.08,65.33,46.72,65.7,46.45,66z"/><path d="M54.81,97.78c-0.6-0.18-1.08-0.94-1.56-0.33c0.46,0.32,0.95,0.66,1.44,1 C55.35,98.26,55.35,98.26,54.81,97.78z"/><path d="M65.56,87.64c-0.66-0.36-1.34-0.64-2.05-0.92c-0.03,0.35,0.31,0.64,0.53,0.94 C64.55,87.67,65.12,87.96,65.56,87.64z"/><path d="M38.87,79.95c0.35,0.27,0.25,0.44,0.18,0.61c0.22,0.09,0.43,0.17,0.75,0.3c-0.36-0.58,0.35-0.98-0.38-1.6 c-0.38-0.11-0.11,0.31-0.4,0.3c-0.18,0-0.43,0-0.47,0.18c0,0.02,0.02,0.07,0.05,0.09C38.64,79.86,38.7,79.88,38.87,79.95z"/><path d="M63.25,51.36c0.65,0.35,0.83,0.95,1.22,1.38c0.62,0.06,0.5-0.3,0.6-0.53 C64.15,51.64,63.75,51.44,63.25,51.36z"/><path d="M55.8,39.78c-0.44,0.06-0.63,0.21-0.33,0.44c0.3,0.22,0.71,0.34,1.07,0.5c0.41-0.25,0.08-0.7,0.14-1.04 C56.35,39.56,56.19,39.74,55.8,39.78z"/><path d="M66.41,87.45c0.25-0.5-0.19-0.85-0.52-1.25c-0.54,0.43-0.44,0.95,0.21,1.38 C66.15,87.62,66.29,87.55,66.41,87.45z"/><path d="M56.97,55.58c0.37,0.1,0.42,0.3,0.46,0.33c0.08-0.21,0.17-0.47,0.26-0.74c-0.15-0.06-0.58-0.31-0.98-0.36 C56.31,55.08,56.81,55.31,56.97,55.58z"/><path d="M64.01,90.32c0.39,0.21,0.68,0.47,1.05,0.33c-0.03-0.3-0.07-0.62-0.1-0.94 C64.15,89.45,64.03,89.82,64.01,90.32z"/><path d="M72.37,76.97c-0.54-0.33-1.08-0.41-1.31-0.91c-0.58,0.61,0.55,0.86,0.61,1.29 C72.04,77.33,72.38,77.37,72.37,76.97z"/><path d="M76.92,75.95c-0.29-0.04-0.44-0.11-0.6-0.19c-0.02,0.26-0.29,0.42,0.02,0.76c0.38-0.01,0.84,0.26,1.25,0.15 C77.62,76.36,77.47,76.11,76.92,75.95z"/><path d="M43.19,97.92c-0.22,0.19-0.15,0.34,0.06,0.47c0.44,0.28,0.82,0.25,1.18,0.11c0.1-0.25-0.18-0.46-0.38-0.68 C43.74,97.71,43.57,97.87,43.19,97.92z"/><path d="M53.16,67.38c-0.08,0.22-0.13,0.36-0.19,0.54c0.38,0.15,0.76,0.3,1.15,0.45c0.06-0.16,0.11-0.3,0.16-0.44 c-0.54-0.17-0.73-0.42-0.51-0.76C53.44,67.04,53.25,67.08,53.16,67.38z"/><path d="M48.01,60.9c0.66-0.44,0.61-0.53-0.5-1.1C47.31,60.15,47.2,60.5,48.01,60.9z"/><path d="M49.85,53c-0.51,0.21-0.51,0.21-0.75,0.83c0.24,0.08,0.47,0.15,0.71,0.22C49.85,53.72,50.49,53.56,49.85,53 z"/><path d="M44.93,64.04c0.15,0.55,0.71,0.46,1.06,0.68c0.57-0.56-0.87-0.73-0.86-1.23 C45.07,63.65,45.01,63.8,44.93,64.04z"/><path d="M52.16,78.98c0.12-0.1,0.26-0.09,0.29-0.15c0.07-0.13,0.1-0.29,0.16-0.51c-0.17-0.02-0.37-0.05-0.67-0.1 c-0.14,0.14-0.53,0.3-0.55,0.69C51.64,78.92,51.91,79.4,52.16,78.98z"/><path d="M51.42,47.68c0.32,0.35,0.23,0.52,0.14,0.69c0.21,0.09,0.42,0.17,0.64,0.26c0.04-0.05,0.08-0.1,0.11-0.15 c0.22-0.41-0.23-0.75-0.49-1.1C51.51,47.33,51.36,47.38,51.42,47.68z"/><path d="M68.4,82.78c0.18,0.16,0.39,0.25,0.68,0.37c0.04-0.26,0.07-0.51,0.1-0.7c-0.27-0.11-0.65-0.27-1.07-0.44 C68,82.15,68.62,82.45,68.4,82.78z"/><path d="M63.11,51.39c-0.1-0.34-0.39-0.55-0.84-0.62c-0.14,0.15-0.31,0.33-0.47,0.5c0.15,0.34,0.55,0.35,0.83,0.51 C62.7,51.61,62.72,51.41,63.11,51.39z"/><path d="M61.74,76.69c-0.59-0.41-0.83-0.45-0.84-0.16c0,0.1,0.21,0.23,0.12,0.35c-0.04,0.06-0.04,0.14-0.06,0.21 C61.97,77.43,61.97,77.43,61.74,76.69z"/><path d="M69.69,38.97c-0.14-0.15-0.19-0.17-0.25-0.19c0.06,0.54,0.13,1.08,0.97,1.46 C70.14,39.87,70.78,39.38,69.69,38.97z"/><path d="M53.81,56c0.24,0.52,0.68,0.78,1.29,0.94c-0.2-0.49-0.39-0.94-1.12-1.13C53.94,55.79,53.89,55.88,53.81,56z"/><path d="M55.27,54.3c-0.15-0.57-0.83-0.56-1.3-0.87c-0.07,0.15-0.12,0.28-0.21,0.5 C54.26,54.03,54.66,54.47,55.27,54.3z"/><path d="M76.87,80.5c0.17-0.1,0.22-0.24,0.28-0.43c-0.49-0.12-0.93-0.55-1.49-0.37 C75.75,80.23,76.39,80.22,76.87,80.5z"/><path d="M74.44,79.96c0.47,0.3,0.66,0.13,0.9,0.04c0.07-0.22-0.22-0.4-0.36-0.72C74.71,79.46,73.9,79.1,74.44,79.96 z"/><path d="M42.6,76.8c0.7,0.05,0.4-0.44,0.61-0.65c-0.23-0.09-0.44-0.18-0.66-0.27C42.58,76.19,42.05,76.34,42.6,76.8 z"/><path d="M63.36,78.77c-0.55,0.09-0.7,0.33-0.39,0.74c0.4,0.12,0.61,0.01,0.88-0.15 C63.73,79.2,63.6,79.01,63.36,78.77z"/><path d="M51.22,44.91c-0.05,0.15-0.08,0.22-0.11,0.29c0.79,0.39,0.79,0.39,1.1-0.13 C51.9,44.9,51.6,44.72,51.22,44.91z"/><path d="M46.15,52.53c-0.08,0.22-0.13,0.36-0.21,0.58c0.24,0.07,0.47,0.15,0.71,0.22c0.09-0.25,0.18-0.5,0.27-0.75 C46.68,52.6,46.4,52.11,46.15,52.53z"/><path d="M34.28,79.25c-0.3,0.49,0.25,0.84,0.54,1.23c-0.05-0.39,0.01-0.73,0.19-1.02 C34.73,79.34,34.52,79.26,34.28,79.25z"/><path d="M62.66,65.32c-0.31-0.24-0.53-0.24-0.61-0.1c-0.13,0.22-0.2,0.48-0.3,0.73 C62.53,66.19,62.63,65.81,62.66,65.32z"/><path d="M55.41,94.62c-0.33,0-0.55,0.05-0.79,0.11c0.25,0.55,0.69,0.59,1.12,0.64 C56.02,95.11,55.61,94.89,55.41,94.62z"/><path d="M58.34,72.84c0.19-0.02,0.35,0.11,0.65,0.2c0.04-0.21,0.26-0.37,0.01-0.68 C58.52,72.13,58.23,72.31,58.34,72.84z"/><path d="M60.43,61.28c-0.27,0.27-0.37,0.59,0.03,0.87c0.08-0.22,0.17-0.48,0.27-0.75 C60.85,61.46,60.7,61.39,60.43,61.28z"/><path d="M51.43,52.79c-0.35-0.16-0.6-0.17-0.63-0.01c-0.1,0.43,0.47,0.43,0.78,0.61 C51.52,53.19,52.07,53.12,51.43,52.79z"/><path d="M37.91,69.43c0.67,0.13,0.37-0.36,0.52-0.62C38.17,68.94,37.36,68.6,37.91,69.43z"/><path d="M65.6,62.57c-0.1-0.32-0.32-0.51-0.57-0.36c-0.16,0.09-0.18,0.31-0.26,0.47c0.25,0.1,0.47,0.19,0.69,0.28 C65.49,62.86,65.53,62.75,65.6,62.57z"/><path d="M68.04,46.18c-0.45-0.22-0.74-0.04-1.1,0.07C67.8,46.49,67.8,46.49,68.04,46.18z"/><path d="M43.61,63.33c0.18,0.16,0.39,0.25,0.69,0.37c0.04-0.16,0.09-0.32,0.13-0.49c-0.25-0.1-0.46-0.19-0.73-0.29 C43.69,63.03,43.67,63.14,43.61,63.33z"/><path d="M64.77,88.75c-0.04-0.22,0.01-0.32,0.06-0.42c-0.28-0.13-0.52-0.14-0.56,0.02 c-0.06,0.23,0.14,0.47,0.44,0.65c0.02,0.01,0.08,0,0.1-0.02C64.84,88.96,64.84,88.91,64.77,88.75z"/><path d="M57.92,78.99c0.31-0.48-0.23-0.51-0.54-0.67C57.33,78.62,57.48,78.87,57.92,78.99z"/><path d="M48.46,55.62c0.1,0.29,0.25,0.47,0.56,0.38c0.15-0.04,0.18-0.13,0.1-0.27 C48.93,55.44,48.71,55.47,48.46,55.62z"/><path d="M75.6,78.19c0.74,0.39,0.62-0.03,0.74-0.24C75.91,77.82,75.62,77.87,75.6,78.19z"/><path d="M45.67,71.15c0.39,0.26,0.58,0.22,0.66,0C46.08,71.18,45.79,70.67,45.67,71.15z"/><path d="M57.09,76.72c-0.42,0.01-0.77,0.09,0.04,0.71C57.13,77.14,57.13,76.97,57.09,76.72z"/><path d="M63.41,66.88c0.66,0.3,0.26-0.19,0.48-0.26C63.57,66.5,63.39,66.54,63.41,66.88z"/><path d="M57.81,64.61c-0.07-0.18-0.16-0.29-0.27-0.37c-0.09-0.07-0.17-0.03-0.15,0.08 C57.43,64.48,57.55,64.62,57.81,64.61z"/><path d="M64.2,66.13c-0.13,0.1-0.14,0.2-0.11,0.21c0.24,0.1,0.41,0.07,0.45-0.1C64.55,66.22,64.41,66.14,64.2,66.13 z"/><path d="M60.71,98.48c-0.02-0.1-0.07-0.13-0.12-0.14c-0.22-0.04-0.47,0-0.39,0.16 C60.3,98.68,60.53,98.58,60.71,98.48z"/><path d="M60.68,64.25c0.22,0,0.34-0.04,0.42-0.1c0.06-0.05-0.02-0.13-0.16-0.14 C60.74,63.99,60.59,64.04,60.68,64.25z"/><path d="M56.33,50.39c0.02,0.1,0.07,0.13,0.12,0.14c0.22,0.04,0.47,0,0.39-0.16 C56.74,50.18,56.52,50.28,56.33,50.39z"/><path d="M60.24,45.12c0.08,0.17,0.08,0.42,0.43,0.46C60.73,45.38,60.61,45.22,60.24,45.12z"/><path d="M57,76.6c0.1,0.02,0.21-0.01,0.21-0.07c0.01-0.16-0.13-0.38-0.31-0.36C56.66,76.19,56.88,76.4,57,76.6z"/><path d="M53.97,101.79c0.07,0.18,0.1,0.41,0.43,0.47C54.47,102.04,54.34,101.88,53.97,101.79z"/><path d="M39.96,77.61c-0.13,0.1-0.14,0.2-0.11,0.21c0.24,0.1,0.41,0.07,0.45-0.1 C40.31,77.7,40.17,77.63,39.96,77.61z"/><path d="M45.78,56.14c0.17,0.14,0.32,0.18,0.32,0.16c0.07-0.16-0.03-0.31-0.28-0.4 C45.8,55.89,45.74,55.98,45.78,56.14z"/><path d="M59.72,72.82c0.15-0.04,0.2-0.14-0.01-0.18C59.67,72.64,59.64,72.73,59.72,72.82z"/><path d="M53.05,53c-0.1-0.13-0.24-0.2-0.24-0.04C52.82,52.99,52.95,53.04,53.05,53z"/><path d="M44.46,69.76c0.1,0.13,0.24,0.2,0.24,0.04C44.69,69.78,44.56,69.73,44.46,69.76z"/><path d="M52.63,68.51c-0.15,0.04-0.2,0.14,0.01,0.18C52.67,68.69,52.71,68.6,52.63,68.51z"/><path d="M59.92,80.7c0.1,0.13,0.24,0.2,0.24,0.04C60.16,80.71,60.02,80.66,59.92,80.7z"/><path d="M53.38,65.1c-0.01,0.14,0.16,0.25,0.24,0.2C53.76,65.22,53.6,65.13,53.38,65.1z"/><path d="M62.46,85.31c0.1,0.13,0.24,0.2,0.24,0.04C62.7,85.33,62.56,85.27,62.46,85.31z"/><path d="M44.81,70.26c0.1,0.13,0.24,0.2,0.24,0.04C45.04,70.28,44.91,70.22,44.81,70.26z"/><path d="M67.04,83.85c0.15-0.04,0.2-0.14-0.01-0.18C66.99,83.67,66.96,83.76,67.04,83.85z"/><path d="M51.69,73.32c-0.15,0.04-0.2,0.14,0.01,0.18C51.74,73.51,51.77,73.42,51.69,73.32z"/><path d="M58.6,67.89c0.15-0.04,0.2-0.14-0.01-0.18C58.55,67.7,58.52,67.79,58.6,67.89z"/><path d="M57.35,63.7c0.1,0.13,0.24,0.2,0.24,0.04C57.58,63.72,57.45,63.67,57.35,63.7z"/><path d="M57.04,64.92c-0.15,0.04-0.2,0.14,0.01,0.18C57.09,65.11,57.12,65.02,57.04,64.92z"/><path d="M51.16,73.73c0.1,0.13,0.24,0.2,0.24,0.04C51.39,73.75,51.26,73.7,51.16,73.73z"/><path d="M60.92,65.78c-0.15,0.04-0.2,0.14,0.01,0.18C60.97,65.97,61,65.87,60.92,65.78z"/><path d="M48.8,71.52c-0.1-0.13-0.24-0.2-0.24-0.04C48.57,71.51,48.7,71.56,48.8,71.52z"/><path d="M62.88,87.09c-0.1-0.13-0.24-0.2-0.24-0.04C62.64,87.07,62.78,87.13,62.88,87.09z"/><path d="M56.48,77.87c-0.1-0.13-0.24-0.2-0.24-0.04C56.25,77.85,56.38,77.9,56.48,77.87z"/><path d="M71.11,83.08c0.1,0.13,0.24,0.2,0.24,0.04C71.34,83.1,71.21,83.05,71.11,83.08z"/><path d="M56.32,78.34c0.1,0.13,0.24,0.2,0.24,0.04C56.55,78.35,56.42,78.3,56.32,78.34z"/><path d="M63.66,89.46c-0.1-0.13-0.24-0.2-0.24-0.04C63.43,89.44,63.56,89.5,63.66,89.46z"/><path d="M56.5,99.47c0.15-0.04,0.2-0.14-0.01-0.18C56.45,99.28,56.42,99.37,56.5,99.47z"/><path d="M58.96,47.07c0.15-0.04,0.2-0.14-0.01-0.18C58.91,46.88,58.88,46.97,58.96,47.07z"/><path d="M66.1,34.38c-0.15,0.04-0.2,0.14,0.01,0.18C66.15,34.56,66.18,34.47,66.1,34.38z"/><path d="M55.31,99.16c0.15-0.04,0.2-0.14-0.01-0.18C55.26,98.98,55.22,99.07,55.31,99.16z"/><path d="M67.86,37.87c-0.1-0.13-0.24-0.2-0.24-0.04C67.63,37.85,67.76,37.91,67.86,37.87z"/><path d="M66.14,36.09c0.1,0.13,0.24,0.2,0.24,0.04C66.37,36.11,66.24,36.06,66.14,36.09z"/><path d="M66.38,91.01c-0.15,0.04-0.2,0.14,0.01,0.18C66.43,91.19,66.46,91.1,66.38,91.01z"/><path d="M65.56,87.45c-0.15,0.04-0.2,0.14,0.01,0.18C65.61,87.63,65.64,87.54,65.56,87.45z"/><path d="M67.72,83.94c-0.1-0.13-0.24-0.2-0.24-0.04C67.49,83.92,67.62,83.98,67.72,83.94z"/><path d="M68.75,52.43c0.01-0.14-0.16-0.25-0.24-0.2C68.38,52.31,68.54,52.4,68.75,52.43z"/><path d="M38.51,78.01c-0.15,0.04-0.2,0.14,0.01,0.18C38.56,78.19,38.59,78.1,38.51,78.01z"/><path d="M67.24,56.88c-0.15,0.04-0.2,0.14,0.01,0.18C67.28,57.06,67.32,56.97,67.24,56.88z"/><path d="M47.59,91.82c0.1,0.13,0.24,0.2,0.24,0.04C47.82,91.83,47.69,91.78,47.59,91.82z"/><path d="M61.47,48.09c-0.15,0.04-0.2,0.14,0.01,0.18C61.52,48.27,61.55,48.18,61.47,48.09z"/><path d="M65.33,88.08c-0.15,0.04-0.2,0.14,0.01,0.18C65.38,88.26,65.41,88.17,65.33,88.08z"/><path d="M35.87,75.15c-0.15,0.04-0.2,0.14,0.01,0.18C35.92,75.33,35.95,75.24,35.87,75.15z"/><path d="M55,51.55c-0.15,0.04-0.2,0.14,0.01,0.18C55.05,51.74,55.09,51.65,55,51.55z"/><path d="M53.51,49.15c0.15-0.04,0.2-0.14-0.01-0.18C53.46,48.97,53.43,49.06,53.51,49.15z"/><path d="M64.82,65.48c0.1,0.13,0.24,0.2,0.24,0.04C65.06,65.5,64.92,65.45,64.82,65.48z"/><path d="M55.28,50.05c-0.15,0.04-0.2,0.14,0.01,0.18C55.33,50.24,55.36,50.15,55.28,50.05z"/><path d="M58.67,94.47c-0.19-0.05-0.28,0.06-0.2,0.13C58.63,94.73,58.69,94.63,58.67,94.47z"/><path d="M53.18,50.81c-0.15,0.04-0.2,0.14,0.01,0.18C53.23,51,53.26,50.9,53.18,50.81z"/><path d="M55.41,54.27c-0.01,0.14,0.16,0.25,0.24,0.2C55.78,54.39,55.62,54.31,55.41,54.27z"/><path d="M44.03,77.2c0.15-0.04,0.2-0.14-0.01-0.18C43.98,77.02,43.95,77.11,44.03,77.2z"/><path d="M76.5,28.24c-0.16,0.06-0.19,0.27-0.25,0.26c-0.92-0.16-0.95,0.3-0.93,0.78c0.23,0.26,0.53,0.28,0.78,0.41 c0.12-0.74,1.76-0.17,1.68-1.08C77.43,28.3,77,28.44,76.5,28.24z"/><path d="M75.28,25.06c-0.27-0.1-0.42-0.16-0.58-0.22c0,0.29-0.27,0.35-0.56,0.4c-0.24,0.04-0.46,0.1-0.71,0.16 c0.03,0.35,0.3,0.64,0.64,1.01c0.82-0.18,1.22-0.71,1.84-1.09C75.69,25.24,75.54,25.17,75.28,25.06z"/><path d="M69.52,28.01c0.68,0.11,0.27-0.73,0.99-0.41c0.08,0.04,0.56-0.25,0.73-0.39c-0.54-0.43-0.64-0.5-0.92-0.27 c-0.31,0.26-1.06-0.41-1.13,0.14c-0.04,0.29-0.2,0.52-0.61,0.63C68.95,27.87,69.16,27.96,69.52,28.01z"/><path d="M66.82,25.66c0.09-0.26,0.22-0.42-0.08-0.66c-0.38-0.18-0.5,0.11-0.78,0.04 C65.97,25.57,66.49,25.56,66.82,25.66z"/><path d="M71.56,27.05c0.11,0.39,0.48,0.45,0.81,0.6c0.06-0.13,0.11-0.26,0.19-0.44 C72.23,27.04,71.93,26.85,71.56,27.05z"/><path d="M67.33,24.97c-0.08,0.49,0.43,0.32,0.61,0.5c0.05-0.15,0.1-0.29,0.16-0.44 C67.85,25.03,67.58,24.55,67.33,24.97z"/><path d="M74.66,29.74c0.13-0.1,0.14-0.2,0.11-0.21c-0.24-0.1-0.41-0.07-0.45,0.1 C74.31,29.65,74.44,29.72,74.66,29.74z"/><path d="M73.49,26.76c-0.1-0.13-0.24-0.2-0.24-0.04C73.26,26.74,73.39,26.79,73.49,26.76z"/></g></g></g><g opacity="0.51"><g><g fill="#ffffff" id="change2_4"><path d="M67.47,22.72c-0.16-0.21-0.35-0.4-0.52-0.64c-0.38-0.55-0.42-1.12-0.54-1.7c-0.36,0.02-0.72,0.05-1.09,0.07 c-0.12,0.01-0.24,0.02-0.37,0.02c-0.09,0.12-0.2,0.23-0.36,0.33c-0.34,0.22-0.49,0.44-0.55,0.77c0.22,0.08,0.43,0.17,0.65,0.25 c0.06-0.13,0.12-0.26,0.22-0.5c0.62,0.96,1.21,1.83,1.07,2.84c0.66,0.19,0.98-0.08,1.35-0.22c-0.01-0.1,0.02-0.2-0.02-0.29 C67.14,23.28,67.67,22.99,67.47,22.72z"/><path d="M48.73,83.97c0.45-0.29,0.64,0.14,0.96,0.29c0.29,0.14,0.55-0.32,0.92-0.06c0.27,0.24,0,0.45,0.04,0.68 c0.49,0.16,0.77-0.33,1.36-0.17c0.7,0.74,1.93,0.25,2.82,1.08c0.09,0.08,0.19,0.15,0.29,0.2c0.24,0.51,0.62,1.02,1.08,1.52 c-0.2-0.09-0.4-0.18-0.59-0.29c-0.95-0.56-1.97-0.68-2.94-1.07c-0.33-0.13-0.74-0.03-1.12-0.22c-0.75-0.39-1.22-0.44-2.06-0.52 c-0.46-0.04-1.05-0.17-1.35-0.46c-0.37-0.34-0.68-0.89-0.18-1.35C48.25,83.64,48.3,84.25,48.73,83.97z"/><path d="M46.8,69.53c-0.18-0.84-0.15-0.98-0.86-1.38c-0.52-0.3-0.12-0.64-0.35-0.84c-0.28-0.24-0.8-0.18-0.95-0.62 c-0.11-0.3-0.3-0.46-0.63-0.29c-0.4,0.22-0.74,0-1.09-0.19c-0.54-0.85,1.46-1.12,0.26-2.11c-0.14-0.17-0.34,0.02-0.54-0.02 c-0.38-0.07-0.69-0.27-1.13-0.28c-0.5-0.01-0.63-0.76-1.27-0.91c-0.5-0.12-1.14,0.11-1.52-0.46c-0.11-0.17-0.22-0.22-0.39-0.19 c-0.3,0.03-0.3,0.32-0.39,0.48c-0.58-0.31-0.2-0.6-0.29-0.98c-1-0.49-2.06-0.88-3.2-0.53c-0.18,0.05-0.29-0.01-0.45-0.07 c-0.59-0.24-0.59-0.23-0.87,0.33c1.46,1.42,2.61,1.65,3.46,0.72c0.2,0.04,0.23,0.23,0.35,0.32c0.45,0.32-0.33,0.78,0.31,1.08 c0.41,0.19,0.75,0.17,1.11,0.02c0.14-0.06,0.28,0.18,0.38,0.21c0.55,0.18,0.6,0.74,1.02,0.97c0.28-0.03,0.42-0.16,0.43-0.24 c0.35,0.13,0.74,0.27,1.18,0.43c-0.02,0.14-0.55-0.01-0.66,0.22c-0.1,0.21,0,0.38,0.13,0.45c0.25,0.14,0.56,0.19,0.8,0.34 c0.19,0.11-0.22,0.31,0.05,0.46c0.56,0.33,1.05,0.86,1.77,0.82c0.37-0.03,0.64,0.12,0.93,0.3c0.21,0.4-0.16,0.65-0.2,1.04 c0.14,0.04,0.32,0.14,0.47,0.13c0.74-0.06,1.26,0.2,1.61,0.85C46.36,69.76,46.57,69.59,46.8,69.53z"/><path d="M50.19,52.58c-0.15-0.17,0.01-0.28,0.03-0.55c-0.52,0.11-1.02-0.37-1.41-0.29 c-0.67,0.14-0.77-0.56-1.29-0.56c-0.44,0-0.66-0.5-0.6-0.67c0.15-0.4-0.02-0.5-0.4-0.62c-0.37-0.11-0.53,0.03-0.59,0.3 c-0.04,0.19-0.23,0.18-0.44,0.27c0.75,0.97,1.63,1.87,2.85,2.43c0.09-0.26,0.14-0.52,0.51-0.49c0.68,0.94,0.68,0.94,2.7,1.75 c0.1,0.04,0.22,0.08,0.28,0.16c0.24,0.28,0.2,0.74,0.67,0.88c0.39,0.12,0.72,0.3,0.96,0.62c0.28-0.08,0.2-0.56,0.65-0.44 c0.39,0.11-0.26,0.41,0.2,0.54c0.27,0.07,0.65,0.18,0.74,0.36c0.42,0.8,1.62,1.04,1.82,1.97c0.65,0.3,0.93,1.1,1.75,1.15 c0.42,0.03,0.45,0.48,0.81,0.55c0.08-0.21,0.08-0.52,0.5-0.26c0.08-0.47,0.22-0.93,0.23-1.41c0.01-0.34-0.38-0.58-0.71-0.59 c-0.77,0-1.28-0.51-1.83-0.86c-0.41-0.26-0.72-0.5-1.15-0.3c-0.4-0.28-0.45-0.67-0.71-1.02c-0.12-0.26-0.62,0.39-0.64-0.18 c-0.02-0.54-0.53-0.39-0.8-0.56c-0.29-0.18-0.64-0.26-0.99-0.4c-0.16-0.49-0.48-0.91-0.99-1.2c0,0-1.99-0.65-2.03-0.55 c-0.08,0.22-0.16,0.36-0.3,0.21C49.92,52.76,50.03,52.61,50.19,52.58z"/><path d="M52.63,59.86c0.21-0.03,0.39,0.04,0.46,0.19c0.41,0.88,0.47,1.03,1.06,1.24c0.56,0.2,0.98,0.47,1.3,0.96 c0.35,0.55,1.16,0.56,1.62,1.07c0.27,0.29,0.59-0.04,0.85-0.16c0.26-0.59-0.81-0.42-0.71-0.92c0.01-0.15,0.07-0.17,0.2-0.11 c0.21,0.1,0.43,0.21,0.65,0.25c0.6,0.1,1.69,0.32,1.89,0.53c0.61,0.64,1.32,0.68,2.16,0.54c0.09-0.45,0.28-1.01-0.52-1.04 c-0.77-0.03-1.27-0.52-1.84-0.85c-0.92-0.54-1.78-1.01-2.93-0.57c0.18-0.23,0.35-0.45,0.53-0.68c-0.66-0.3-0.94,0.17-1.39,0.12 c-0.33-0.11-0.24-0.45-0.51-0.63c-1.27,0.09-1.82-0.13-2.66-1.06c-0.17-0.18-0.2-0.34-0.12-0.55c0.17-0.42-0.23-0.52-0.55-0.62 c-0.44-0.14-0.7,0.01-0.94,0.33c-0.24,0.32,0.19,0.71-0.18,1.08C51.69,59.04,52.03,59.57,52.63,59.86z"/><path d="M46.25,79.3c0.29-0.08,0.26-0.66,0.91-0.33c0.58,0.14,0.03,0.45,0.34,0.59c1.34-0.05,2.62,0.17,3.82,1 c0.25,0.17,0.38,0.57,0.78,0.51c1.05-0.14,1.84,0.25,2.58,1.02c0.13,0.14,0.36,0.26,0.62,0.33c-0.13,0.25-0.24,0.5-0.32,0.75 c-0.79-0.28-1.58-0.52-2.41-0.67c0.17-0.37,0.28-0.65-0.2-0.82c-0.49-0.05-0.28,0.52-0.83,0.59c-0.15-0.06-0.47-0.16-0.78-0.31 c-0.3-0.14-0.69-0.14-0.9-0.51c0.02-0.15,0.03-0.32,0.07-0.62c-1.14,0.55-2.24,0.12-3.34-0.27c-0.33-0.7-0.83-0.23-1.25-0.26 c-0.8-1.33-0.79-1.36,0.72-1.77C46.13,78.78,45.8,79.08,46.25,79.3z"/><path d="M27.37,41.42c0.5,0.2,0.89,0.35,1.29,0.5c-0.26,0.27-0.44,0.47-0.63,0.66c-0.19-0.08-0.4-0.16-0.7-0.27 c0.42-0.24,0.14-0.52,0-0.8c-0.5,0.1-0.74,0.43-0.61,0.85c0.11,0.36,0.27,0.74,0.8,0.96c0.45,0.18,0.26-0.48,0.68-0.24 c0.22,0.13,0.5,0.32,0.79,0.23c0.3-0.09,0.59-0.2,0.89-0.31c-0.17-0.7-0.87-1.24-0.49-1.85c-0.48-0.32-0.86-0.55-1.3-0.26 c-0.11-0.21-0.2-0.39-0.29-0.55c-0.21,0.25-0.43,0.5-0.64,0.75C27.24,41.21,27.31,41.31,27.37,41.42z"/><path d="M52.86,34.92c0-0.17-0.11-0.44-0.15-0.44c-0.84,0.12-1.56-0.64-2.46-0.49c-0.3-0.74-0.68-1.44-1.69-1.61 c-0.25-0.04-0.41-0.2-0.47-0.42c-0.11-0.4-0.59-0.56-0.79-0.5c-0.6,0.15-0.5-0.15-0.54-0.46c-0.01-0.07-0.3-0.13-0.54-0.22 c-0.4,0.47-0.24,1.36-1.21,1.42c0.18,0.32,0.48,0.3,0.71,0.43c0.07-0.22,0.07-0.45,0.51-0.28c0.46,0.19,0.56,0.54,0.7,0.86 c0.29,0.64,0.65,1.09,1.51,0.94c0.19-0.03,0.43,0.05,0.63,0.08c-0.14,0.49-0.53,0.38-0.73,0.62c0,0.23,0,0.54,0.01,0.91 c0.45-0.16,1.23,0.01,0.78-0.95c0.19,0.19,0.38,0.39,0.57,0.59c0.01-0.03-0.08,0.21-0.18,0.46c0.4,0.37,1.05,0.31,1.42,0.71 c0.33,0.47-0.41,0.37-0.36,0.69c0.58,0.16,1.17-0.03,1.76,0.23c0.12-0.47-0.13-0.76-0.64-0.93c0.01-0.08,0.01-0.17,0.04-0.25 c0.12-0.33,0.24-0.65,0.37-0.98C52.21,35.07,52.88,35.49,52.86,34.92z"/><path d="M56.24,77.1c-0.13,0.23-0.21,0.45,0.12,0.68c0.45-0.05,1.14-0.34,1.34,0.1c0.11,0.23,0.26,0.33,0.43,0.41 c-0.13,0.27-0.26,0.55-0.39,0.82c-0.09-0.13-0.1-0.31,0.09-0.61c-0.67,0.05-1.29,0.17-1.92,0.01c-0.49-0.13-0.69-0.37-0.46-0.79 c0.01-0.01-0.14-0.09-0.14-0.1c-0.47-0.08-0.36,0.3-0.54,0.43c-0.59,0-0.78-0.6-1.3-0.74c-0.28-0.07-0.63,0.24-0.86-0.23 c-0.19-0.4-0.58-0.08-0.89-0.17c-0.51-0.15-0.13-0.47-0.35-0.63c-0.35-0.26-0.75-0.08-1.12-0.21c-0.56-0.2-0.78-0.51-0.61-1.2 c1.15,0.63,2.27,0.74,3.33,1.09C53.89,76.72,55.25,76.41,56.24,77.1z"/><path d="M51.79,26.82c0.17,0.07,0.25,0.07,0.27,0.11c0.63,0.81,1.52,1.49,1.91,2.48c-0.48,0.03-0.43-0.42-0.75-0.43 c-0.16,0.33,0.13,0.56,0.32,0.81c0.32,0.12,0.5-0.15,0.77-0.16c0.08,0.06,0.23,0.11,0.25,0.18c0.36,0.95,1.44,1.41,1.98,2.25 c0.27,0.43,0.84,0.25,1.21-0.39c-0.41-0.21-0.84-0.41-1.22-0.67c-0.44-0.3-0.48-0.89-0.78-0.97c-0.74-0.19-0.38-0.84-0.67-0.97 c-0.69-0.3-0.13-0.73-0.45-1.13c-0.54-0.03-1.22,0-1.5-0.77c-0.19-0.53-0.54-1.04-0.77-1.46c-0.57-0.31-1.04-0.24-1.5-0.29 c-0.15,0.31,0.35,0.53,0.21,0.86C50.89,26.76,51.51,26.57,51.79,26.82z"/><path d="M65.67,34.85c1.21-0.83,1.21-0.83,1.2-1.41c1.65-0.65,1.65-0.65,1.56-1.62c-0.49,0.17-0.96,0.29-1.37,0.49 c-1.02,0.51-1.07,0.51-1.64-0.64c-0.11-0.21-0.25-0.36-0.49-0.4c-0.42-0.07-0.85-0.13-1.22-0.19c-0.63,0.32-0.2,0.93-0.43,1.34 c0.77,0.49,2.11-0.02,2.43,1.25c-0.11,0.52-0.73-0.12-0.88,0.25c-0.13,0.31-0.24,0.63-0.36,0.94 C64.93,35.1,65.3,35.62,65.67,34.85z"/><path d="M65.9,33.23c0.05-0.06,0.12-0.17,0.15-0.16c0.25,0.09,0.34,0.26,0.25,0.46 C66.29,33.56,66.14,33.52,65.9,33.23z"/><path d="M31.24,59.56c-0.89-0.79,0.68-1.2,0.04-1.99c0.64,0.23,1.08,0.21,1.02-0.32c0.08-0.21,0.01-0.25-0.13-0.3 c-0.44-0.16-0.87-0.32-1.29-0.5c-0.52-0.22-1.03-0.36-1.24,0.21c-0.02,0.06-0.05,0.1-0.07,0.13c0.04,0.15,0.08,0.3,0.12,0.45 c0.29,0.1,0.57,0.36,0.94,0.48c-0.3,0.15-0.45,0.38-0.65,0.58c0.07,0.25,0.14,0.5,0.21,0.75c0.14,0.46,0.25,0.93,0.36,1.4 c0.21,0.1,0.41,0.1,0.61-0.25c0.17-0.3,0.35-0.09,0.5-0.02c0.47,0.22,0.86,0.2,1.2-0.17C32.49,59.11,31.79,59.58,31.24,59.56z"/><path d="M55.4,52.11c0.04,0.24,0.01,0.33-0.07,0.54c0.68,0.3,1.44,0.2,2.27,0.7c0-0.43,0-0.69-0.01-0.98 c-0.21-0.12-0.63-0.2-1.07-0.14c-0.53-0.04,0.63-1.03-0.53-0.72c-0.18,0.05-0.64-0.37-0.87-0.64c-0.21-0.25-0.62-0.43-0.7-0.38 c-0.95,0.59-1.11-0.62-1.73-0.72c-0.19-0.71-0.89-0.75-1.45-0.98c-0.23,0.91-0.22,0.93,0.56,1.33c0.26,0.13,0.44,0.32,0.65,0.47 c0.51,0.35,0.98,0.81,1.75,0.75C54.52,51.32,55.13,51.48,55.4,52.11z"/><path d="M63.59,41.32c-0.52,0.28-1.13,0.34-1.16,0.99c0.39,0.3,1.03,0.42,1.15,0.1c0.23-0.61,0.95-0.53,1.33-0.92 c0.35-0.36,0.42-0.85,0.74-1.18c0.56,0.11,1.16,0.29,1.13-0.41c-0.02-0.41,0.09-0.69,0.37-0.96c0.16-0.16,0.24-0.44-0.09-0.71 c-0.29,0.12-0.96-0.13-0.72,0.58c0.14,0.4-0.37,0.6-0.47,0.63C64.83,39.75,64.4,40.65,63.59,41.32z"/><path d="M68.45,28.65c0.07-0.19,0.16-0.35,0.14-0.37c-0.94-0.63-0.66-1.51-0.86-2.39 c-0.62,0.29-0.79,0.77-0.68,1.32c0.14,0.66,0.43,1.23-0.82,0.99c-0.38-0.07-0.74,0.57-0.96,1.09c0.46,0.22,0.69,0.74,1.32,0.75 c0.42-0.38-0.26-1.21,0.49-1.52c0.45,0,0.54,0.5,0.97,0.56C68.47,29.15,68.27,28.83,68.45,28.65z"/><path d="M37.57,78.85c0.81-0.09,0.81-0.09,1.15-0.58c-0.99-0.75-2.07-1.17-3.31-1.06c0.07,0.73-1.31-0.09-1.13,0.64 c0.49,0.87,1.19-0.07,1.64,0.49C36.35,78.87,36.97,78.53,37.57,78.85z"/><path d="M40.15,53.01c-0.03-0.27,0.12-0.49-0.16-0.75c-0.36-0.13-0.82,0.07-0.79,0.23 c0.05,0.37-0.32,0.88,0.13,1.07c0.65,0.27,0.4,0.59,0.48,0.95c0.06,0.27-0.11,0.46-0.03,0.7c0.08,0.25,0.44,0.23,0.51,0.37 c0.36,0.64,0.82,0.35,1.04,0.11c0.22-0.23,0.53-0.69-0.22-0.95c-0.25-0.09-0.3-0.26-0.26-0.49c0.05-0.31,0.04-0.63,0.05-0.95 C40.7,53.22,40.48,53.14,40.15,53.01z"/><path d="M35.53,82.34c1.85,0.11,2.1,0.2,3.45,0.89c0.14-0.18,0.29-0.37,0.36-0.46c-1.11-0.43-2.15-0.84-3.2-1.25 c-0.04,0.11-0.17,0.51-0.65,0.04c-0.18-0.17-0.37-0.23-0.68-0.37c-0.46,0.06-0.56,0.3-0.59,0.59 C34.67,81.95,35.1,82.15,35.53,82.34z"/><path d="M52.98,95.58c0.71,0.18,0.35-0.36,0.64-0.55c-0.71-0.37-1.16-1.27-2.16-0.7c-0.37-0.3-0.73-0.6-1.14-0.92 c-0.38,0.06-0.78,0.16-1.16,0.51c0.7,0.4,1.07,1.07,1.94,1.24c0.39,0.07,0.59-0.04,0.82-0.22 C52.14,95.26,52.48,95.42,52.98,95.58z"/><path d="M62.37,43.8c0.13-0.32,0.28-0.54,0.01-0.79c-1.41,0.29-2.5,1.02-3.21,2.19c0.39,0.1,0.76,0.19,1.18,0.3 c0.3-0.35,0.73-0.71,1.51-0.43c0.21-0.41-0.35-0.7-0.33-1.14C61.71,43.67,62.14,44.27,62.37,43.8z"/><path d="M51.61,89.47c-0.82-0.24-1.48-0.53-2.12-0.88c-0.67-0.37-1.54-0.21-2.23,0.02c0,0.06,0.02,0.1,0.03,0.15 c0.05,0.09,0.09,0.19,0.12,0.28c0.15,0.16,0.37,0.22,0.55,0.24c0.68,0.1,1.37,0.11,2.1,0.16c0.38,0.21,0.28,0.75,0.74,0.97 c0.1-0.15,0.2-0.3,0.3-0.45c0.6-0.03,1.06,0.42,1.57,0.45c0.09-0.19,0.17-0.36,0.26-0.54C52.52,89.71,52.14,89.56,51.61,89.47z"/><path d="M34.62,50.85c0.22,0.09,0.38,0.19,0.43,0.16c0.83-0.47,1.09-1.18,0.4-1.73c-0.59-0.48-0.79-1.11-1.22-1.6 c-0.67,0.09-0.6,0.59-0.73,0.93c-0.17,0.46,0.23,0.67,0.64,0.95C34.59,49.85,34.01,50.43,34.62,50.85z"/><path d="M53.83,67.79c-0.45-0.25-0.81-0.17-1.2-0.34c-0.71-0.31-1.01,0.07-1.17,0.73c1.04-0.3,1.95,0.48,2.96,0.43 c0.77,0.76,1.83,0.21,2.63,0.8c0.09-0.23,0.14-0.37,0.19-0.5c0.06-0.1,0-0.14-0.15-0.19c-0.68-0.2-1.33-0.75-2.07-0.35 C54.73,68.01,54.35,67.89,53.83,67.79z"/><path d="M63.11,36.87c-0.4,0.01-0.68-0.25-1.09-0.36c-0.37,0.37,0.07,1.18-0.8,1.41c-0.61,0.16-0.48,1.12-1.22,1.34 c-0.22,0.07-0.18,0.13-0.22,0.9c0.31,0.2,0.53,0,0.77-0.08c0.39-0.14-0.3-0.71,0.33-0.81c0.29-0.05,0.64-0.1,0.78-0.44 c0.13-0.3,0.52-0.44,0.57-0.81c0.01-0.09-0.03-0.28,0.27-0.21C63.38,37.99,63.32,37.49,63.11,36.87z"/><path d="M48.38,37.44c-0.35-1.52-1.5-1.07-2.52-1.11c-0.06,0.32-0.13,0.66-0.22,1.09c0.35,0.43,0.87-0.05,1.38,0.04 c-0.04,0.15-0.08,0.28-0.13,0.44c0.37,0.12,0.75,0.24,1.28,0.42C48.22,38.1,48.28,37.82,48.38,37.44z"/><path d="M43.72,72.05c0.17,0.27,0.17,0.46,0.41,0.5c0.41-0.53,0.55-1.11,0.01-1.73c-0.25-0.29-0.07-0.54-0.12-0.81 c-0.28-0.11-0.55-0.21-0.82-0.32c0.06-0.32,0.26-0.63-0.34-0.83c-0.74-0.25-1.03,0.05-1.19,0.58c0.3,0.45,0.75,0.25,1.15,0.32 c0.41,0.31-0.29,0.98,0.64,1.2C43.92,71.07,43.24,71.59,43.72,72.05z"/><path d="M50.27,29.07c0.11,0.29,0.14,0.48-0.08,0.77c0.52,0.2,1,0.39,1.47,0.58c-0.08,0.82,0.55,1.09,1.16,1.4 c0.66-0.57,0.13-1.22-0.25-1.58C51.96,29.66,51.47,28.68,50.27,29.07z"/><path d="M49.29,57.7c0.92-0.11,0.14-0.78,0.54-1.01c-0.64-0.39-1.58-0.37-1.76-1.21c-0.7-0.02-0.99,0.34-0.97,0.8 c0.01,0.34,0.3,0.65,0.77,0.75C48.35,57.14,48.58,57.71,49.29,57.7z"/><path d="M42.61,57.31c0.05,0.26,0.15,0.46,0.07,0.74c-0.09,0.34,0.12,0.65,0.57,0.83c0.67,0.27,1.33,0.54,2.1,0.45 c0.04-0.09,0.11-0.28,0.21-0.55c-0.49-0.14-0.97-0.29-1.28-0.38c-0.46-0.42,0-0.7-0.28-1.06 C43.59,57.32,43.14,57.16,42.61,57.31z"/><path d="M32.99,66.16c-0.22-0.06-0.34-0.12-0.43-0.1c-0.2,0.05-0.39,0.13-0.59,0.2c0.56,1.1,1.35,1.36,2.16,0.69 c0.4-0.33,1.31-0.2,1.13-1.04c-0.36-0.18-0.93-0.41-1.14-0.03C33.86,66.34,33.39,66,32.99,66.16z"/><path d="M54.81,33.63c-0.27,0.05-0.45-0.16-0.65-0.2c0.04,0.73-0.91,0.8-1.14,1.43c0.03,0.78,0.73,0.36,1.2,0.66 c-0.01-0.32-0.01-0.62-0.02-1.07c0.73,0.51,0.85,1.16,1.53,1.13c0.18-0.81,0.17-0.8-0.68-1.13 C54.54,34.26,54.76,33.97,54.81,33.63z"/><path d="M47.54,29.6c-0.53-0.79-0.99-1.4-1.81-1.75c-0.31-0.13-0.2-0.78-0.94-0.68c0.52,0.96,0.8,2.01,2.18,2.57 c-0.16,0.24-0.32,0.47-0.47,0.71c0.27,0.11,0.44,0.17,0.6,0.23c0.13,0.09,0.17,0.04,0.21-0.1 C47.39,30.29,47.51,30.02,47.54,29.6z"/><path d="M44.51,28.87c-0.99-0.84-0.99-0.84-1.61,0.06c0.37,0.44,0.87,0.72,1.57,0.94 c-0.21,0.22-0.41,0.44-0.61,0.66c0.5,0.2,0.75,0.3,0.96,0.39c0.78-0.28,0.24-0.97,0.48-1.39 C45.02,29.33,44.53,29.42,44.51,28.87z"/><path d="M50.64,61.76c-0.53,0.02-0.51,0.37-0.63,0.6c0.51,0.61,1.47,0.67,1.9,1.46c0.19,0.34,0.82,0.31,1.29,0.01 c-0.6-0.67-1.43-1.2-1.71-2C51.18,61.81,50.97,61.81,50.64,61.76z"/><path d="M44.94,91.13c0,0.17,0.14,0.32,0.14,0.45c0.02,0.96,0.82,1.44,1.63,1.5c0.84,0.06,1.26,0.44,1.67,1.01 c0.5-0.66,0.5-0.66,0.23-1.4C47.09,92.94,45.97,92.21,44.94,91.13z"/><path d="M48.39,39.49c-0.3,0-0.56-0.16-0.82,0.06c-0.19,0.69,0.7,0.81,0.97,1.26c0.44-0.22,0.25-0.62,0.23-1.06 c0.38,0.24,0.62,0.62,1.1,0.65c0.08-0.35,0.16-0.72,0.27-1.18c-0.31-0.54-1-0.16-1.51-0.39C48.57,39.02,48.5,39.21,48.39,39.49z"/><path d="M28.05,48.8c0.05,0.27,0.18,0.51,0.31,0.74c0.02,0.29-0.49,0.21-0.45,0.53c0.12,0.37,0.52,0.39,0.82,0.52 c0.08,0.03,0.29-0.04,0.29-0.09c0.01-0.66,0.95,0.05,1.02-0.5c0.02-0.19,0.24-0.33,0-0.71C29.48,49.16,28.91,48.63,28.05,48.8z"/><path d="M64.9,48.08c-0.58-1.36-1.68-0.98-2.63-1.08c-0.1,0.37,0.23,0.73,0.45,1.05c0.23,0.33,0.62,0.79,0.98,0.13 C64.14,48.37,64.57,48.4,64.9,48.08z"/><path d="M58.54,45.5c-0.13-0.31-0.11-0.61-0.52-0.78c-0.89,0.6-0.68,1.55-0.65,2.44c0.02,0.42,0.45,0.42,0.78,0.59 C58.67,47.12,58.06,46.23,58.54,45.5z"/><path d="M48.1,74.27c-0.57-0.85-1.48-0.85-2.22-0.81c-0.16,0.19-0.32,0.38-0.49,0.59c0.74,0.63,1.73,0.38,2.41,1.34 C47.91,74.86,47.97,74.58,48.1,74.27z"/><path d="M46.72,84.26c0.22,0.01,0.32-0.03,0.55-0.11c-0.42-0.33-0.87-0.58-1.17-0.94c-0.31-0.36-0.38-0.9-1.06-0.96 c-0.49,0.27,0.18,1.07-0.57,1.26C45.09,84.1,45.93,83.86,46.72,84.26z"/><path d="M36.64,56.82c-0.7,0.39-0.68,0.38-0.17,1.14c0.15,0.22-0.21,0.24-0.39,0.4c0.17,0.5,0.28,1.05,1.06,1.19 C37.42,58.84,37.29,58.05,36.64,56.82z"/><path d="M62.12,52.57c0.21,0.23,0.34,0.51,0.57,0.38c0.51-0.3,0.95,0,1.44,0.17c0.02-0.3,0.04-0.59,0.06-0.89 c-0.65-0.33-1.52-0.07-2.06-0.77c-0.02-0.03-0.38,0.13-0.59,0.2C61.46,52.03,61.59,52.33,62.12,52.57z"/><path d="M50.21,24.55c0.05-0.07,0.04-0.15,0-0.16c-1.62-0.69-1.75-0.63-2.05,0.96 C49.2,25.74,49.83,25.44,50.21,24.55z"/><path d="M55.09,96.46c0.05,0.26,0.18,0.5,0.32,0.76c0.25,0.02,0.5,0.03,0.76,0.05c-0.05,0.15-0.09,0.28-0.13,0.41 c0.23,0.09,0.45,0.17,0.65,0.25c0.36-0.41,0.09-0.89-0.07-1.38c0.27,0.08,0.41,0.13,0.57,0.17c0.11-0.88-0.71-0.68-1.3-0.93 c-0.03,0.27-0.07,0.56-0.1,0.85C55.48,96.54,55.32,96.49,55.09,96.46z"/><path d="M61.81,26.97c0.2,0.37,0.32,0.6,0.44,0.82c0.66-0.11,0.87-0.59,0.58-0.86c-0.47-0.44,1.13-0.38,0.06-0.81 c-0.41-0.16-0.28-0.78-0.78-0.97C61.81,25.66,62.09,26.33,61.81,26.97z"/><path d="M65.7,46c0.33,0.1,0.51,0.19,0.75,0.18c0.68-0.02,0.49,0.37,0.36,0.71c0.75,0.17,0.94-0.25,1.08-0.82 c-0.57-0.35-1.17-0.71-1.91-1.16C65.84,45.28,65.71,45.62,65.7,46z"/><path d="M69.53,41.36c-0.42,0.63-1.17,1.02-0.86,1.86c1.24,0.23,0.82-1.31,1.96-1.18 C70.31,41.65,70.43,41.02,69.53,41.36z"/><path d="M69.38,31.4c0.22,0.09,0.33,0.13,0.51,0.2c0.21-0.16,0.37-0.54,0.22-0.65c-0.55-0.39-0.77-1.14-1.59-1.22 c-0.41,0.07-0.33,0.44-0.51,0.72C68.37,30.8,68.73,31.17,69.38,31.4z"/><path d="M33.71,64.27c0.25-0.25,0.21-0.45-0.02-0.57c-0.25-0.13-0.62-0.16-0.77-0.34 c-0.11-0.13,0.17-0.42-0.05-0.67c-0.07-0.08-0.11-0.19-0.16-0.29c-0.38-0.19-0.61,0.06-0.87,0.18c-0.12,0.16,0.06,0.29,0.1,0.43 c0.08,0.33,0.64,0.4,0.55,0.92C32.44,64.23,33.08,64.51,33.71,64.27z"/><path d="M74.15,33.14c0.14-0.39,0.35-0.38,0.67-0.32c0.42,0.08,0.52-0.34,0.67-0.54c0.12-0.17-0.08-0.57-0.45-0.72 c-0.54,0.09-0.4,0.61-0.66,0.88c-0.27-0.1-0.54-0.21-0.74-0.29c-0.16,0.32-0.31,0.64-0.47,0.95 C73.47,33.2,73.77,33.45,74.15,33.14z"/><path d="M67.65,54.05c-0.22-0.09-0.38-0.19-0.43-0.16c-0.4,0.25-0.46,0.65-0.44,1.08c0.01,0.41,0.81,0.52,0.62,1.03 c-0.01,0.02,0.38,0.19,0.7,0.34c-0.16-0.6-0.4-1.09-0.09-1.54C68.18,54.55,67.83,54.33,67.65,54.05z"/><path d="M47.65,60.59c0.19-0.14,0.26-0.33,0.34-0.53c-0.86-0.33-1.71-0.96-2.56-0.22c0.41,0.48,0.41,0.48,1.28,0.82 C46.8,59.98,47.24,60.53,47.65,60.59z"/><path d="M57.46,42.8c0.1-0.39,0.43-0.37,0.65-0.49c0.62-0.33,0.64-0.41,0.31-1.3c-0.31-0.17-0.55-0.01-0.75,0.1 c-0.41,0.24-0.22,0.67-0.22,1.04c-0.52-0.15-0.65,0.11-0.66,0.49C56.99,42.73,57.2,42.82,57.46,42.8z"/><path d="M50.11,71.45c0.22,0.57,0.51,0.87,1.04,0.97c0.05-0.24,0.58-0.39-0.09-0.74c-0.59-0.31,0.02-0.69,0.02-1.07 c-0.37-0.26-0.95-0.25-1.17-0.77c-0.08,0.09-0.18,0.19-0.18,0.19C50.18,70.43,49.74,70.9,50.11,71.45z"/><path d="M29.54,47.85c0.43-0.7-0.35-1.12-0.37-1.64c-0.51-0.12-0.84-0.04-0.99,0.34c-0.05,0.12-0.06,0.26-0.09,0.39 c0.72,0.1,0.51,0.92,1.1,1.1C29.29,48.07,29.41,47.98,29.54,47.85z"/><path d="M35.05,53.87c-0.23,0.28-0.32,0.64-0.62,0.53c-0.65-0.24-1.02,0.06-1.5,0.27c0.18,0.18,0.08,0.61,0.49,0.31 c0.07-0.05,0.11-0.21,0.13-0.21c0.32,0.09,0.63,0.22,0.96,0.3c0.36,0.09,0.14-0.55,0.64-0.38c0.71,0.24,0.53-0.35,0.74-0.61 C35.63,53.98,35.42,53.9,35.05,53.87z"/><path d="M50.97,66.44c-0.61,0.41-0.74-0.63-1.18-0.36c-0.51,0.19,0.14,0.68-0.44,1.03c0.47,0.12,0.79,0.2,1.11,0.27 c0.34,0.07,0.34,0.06,1.23-0.41C51.64,66.64,51.34,66.58,50.97,66.44z"/><path d="M39.09,65.46c-0.56-0.22-0.89-0.04-1.23,0.09c0.41,1.15,0.53,1.19,1.9,0.58 C39.65,65.86,39.64,65.53,39.09,65.46z"/><path d="M58.59,98.22c0.32-0.03,0.52-0.1,0.73-0.17c0.18-0.45-0.35-0.72-0.38-1.17c-0.49,0.24-0.96-0.21-1.39,0.14 C57.73,97.46,57.8,97.98,58.59,98.22z"/><path d="M55.41,48.83c0.06-0.5-0.51-0.48-0.65-0.98c-0.46,0.83,0.23,1.69-0.27,2.3c0.52,0.31,0.68-0.09,0.98-0.02 C55.58,49.67,54.94,49.29,55.41,48.83z"/><path d="M56.32,47.82c-0.09,0.9-0.1,0.9,0.81,1.35c0.25-0.67,0.4-1.31-0.19-1.94 C56.48,47.24,56.45,47.5,56.32,47.82z"/><path d="M38.46,52.24c0.07-0.19,0.11-0.28,0.18-0.46c-0.49-0.39-1.28-0.1-1.61-0.66c-0.45,0.17-0.42,0.49-0.5,0.75 c0.13,0.38,0.56,0.48,0.81,0.48C37.7,52.33,38.02,52.07,38.46,52.24z"/><path d="M30.29,51.1c-0.22-0.58-0.52-0.56-0.83-0.39c-0.38,0.21-0.55,0.5-0.33,0.96c0.23,0.47,0.64,0.5,1.05,0.51 C30.53,51.91,30.06,51.49,30.29,51.1z"/><path d="M34.7,71.13c0.18-0.14,0.25-0.32,0.35-0.57c-0.78-0.11-1.51-1-2.34-0.24 C33.13,71.16,34.05,70.65,34.7,71.13z"/><path d="M69.33,36.73c0.13,0.51,0.52,0.57,0.93,0.63c0.73-0.55,0.18-1.08-0.13-1.63 C69.43,35.81,69.58,36.33,69.33,36.73z"/><path d="M64.96,53.79c-0.23,0.61,0.27,0.65,0.65,0.83c0.13-0.14,0.26-0.3,0.42-0.43c0.15-0.12,0.44-0.07,0.49-0.35 c-0.07-0.09-0.13-0.25-0.25-0.32c-0.32-0.2-0.67-0.36-1-0.54C65.14,53.33,65.07,53.51,64.96,53.79z"/><path d="M63.03,36.72c0.89-0.04,1.04-0.64,1.16-1.23c-0.12-0.36-0.46-0.34-0.82-0.55 C63.27,35.55,62.74,35.97,63.03,36.72z"/><path d="M57.6,40.69c0.71-0.65,0.71-0.65-0.08-1.63c-0.66,0.34-0.41,0.93-0.34,1.46 C57.18,40.56,57.38,40.61,57.6,40.69z"/><path d="M60,50.49c-0.55-0.27-0.99-0.64-1.49-0.56c-0.17,0.33-0.07,0.53,0.26,0.65c0.49,0.17,0.37,0.45,0.23,0.77 C59.74,51.53,59.94,51.12,60,50.49z"/><path d="M50.74,71.03c-0.33,0.08-0.66,0.04-0.82,0.38c0.37,0.39,0.78,0.77,1.36,0.97 C51.65,71.61,51.65,71.61,50.74,71.03z"/><path d="M42.97,26.33c0.53,0.13,0.9,0.54,1.34,0.29c0.43-0.47-0.9-0.53-0.4-1.02c-0.38-0.16-0.76-0.33-1.16-0.5 C42.65,25.55,43.28,25.93,42.97,26.33z"/><path d="M48.28,64.47c-0.61-0.16-1.03-1.04-1.61-0.24c0.45,0.34,0.93,0.71,1.41,1.07 C48.79,65.01,48.79,65.01,48.28,64.47z"/><path d="M60.71,50.9c-0.65-0.37-1.34-0.64-2.05-0.92c-0.07,0.44,0.25,0.76,0.46,1.1 C59.64,51.04,60.22,51.33,60.71,50.9z"/><path d="M29.84,54.34c-0.22,0.24-0.3,0.43-0.37,0.61c0.54,0.41,1.14,0.18,1.63,0.36c0.37-0.39-0.06-0.62-0.15-0.89 C30.63,54.33,30.3,54.54,29.84,54.34z"/><path d="M33.44,44.25c0.34,0.29,0.21,0.51,0.12,0.73c0.22,0.08,0.43,0.17,0.76,0.3C34,44.6,34.8,44.03,34.1,43.35 c-0.38-0.1-0.15,0.39-0.45,0.41c-0.19,0.02-0.45,0.04-0.51,0.27c-0.01,0.03,0.01,0.08,0.04,0.1 C33.22,44.17,33.28,44.18,33.44,44.25z"/><path d="M54.94,96.51c0.16-0.64,0.09-1.19-0.83-1.4c-0.12,0.32-0.23,0.66-0.35,0.99 C54.12,96.25,54.49,96.4,54.94,96.51z"/><path d="M61.63,50.57c0.32-0.64-0.1-1.03-0.41-1.48c-0.61,0.58-0.57,1.21,0.07,1.68 C61.34,50.8,61.49,50.71,61.63,50.57z"/><path d="M64.3,47.4c-0.6,0.14-1.21,0.19-1.24,0.83C64.28,48.64,64.39,48.58,64.3,47.4z"/><path d="M51.74,67.88c-0.25,0.02-0.51,0.01-0.46,0.2c0.14,0.55,0.38,1.06,1.13,1.17 C52.68,68.69,52.68,68.2,51.74,67.88z"/><path d="M58.79,54.35c0.39,0.21,0.67,0.51,1.07,0.3c0-0.36,0-0.76-0.01-1.15C59.02,53.27,58.86,53.73,58.79,54.35z"/><path d="M36.37,56.49c-0.41-0.9-0.41-0.9-1.1-1.28C34.94,56.26,35.01,56.37,36.37,56.49z"/><path d="M66.71,48.9c-1-0.48-0.98,0.11-1.09,0.53c0.22,0.39,0.57,0.39,0.91,0.5C66.84,49.67,67.1,49.4,66.71,48.9z"/><path d="M69.06,37.08c-0.53-0.35-1.09-0.39-1.28-0.98c-0.68,0.81,0.49,1,0.5,1.52 C68.67,37.55,69.02,37.57,69.06,37.08z"/><path d="M73.96,35.35c-0.3-0.02-0.45-0.09-0.61-0.17c-0.05,0.32-0.35,0.54-0.06,0.93c0.4-0.05,0.85,0.23,1.3,0.06 C74.65,35.78,74.53,35.49,73.96,35.35z"/><path d="M59.33,70.05c-0.5-0.34-0.96,0-1.35-0.29c-0.07,0.19-0.14,0.37-0.22,0.57c0.4,0.17,0.79,0.33,1.11,0.46 C59.37,70.7,59.29,70.33,59.33,70.05z"/><path d="M36.02,65.86c-0.26,0.25-0.2,0.43,0.01,0.57c0.44,0.29,0.84,0.23,1.23,0.01c0.13-0.32-0.14-0.54-0.33-0.8 C36.62,65.54,36.43,65.76,36.02,65.86z"/><path d="M49.88,27.32c-0.11,0.28-0.18,0.46-0.26,0.68c0.39,0.15,0.77,0.29,1.16,0.44c0.08-0.2,0.14-0.38,0.21-0.56 c-0.55-0.15-0.73-0.44-0.46-0.87C50.21,26.88,50.01,26.94,49.88,27.32z"/><path d="M47.55,41.67c0.14-0.13,0.29-0.14,0.33-0.21c0.09-0.17,0.13-0.36,0.23-0.64c-0.17-0.01-0.38-0.03-0.7-0.05 c-0.16,0.19-0.59,0.42-0.65,0.91C47.01,41.64,47.24,42.22,47.55,41.67z"/><path d="M65.05,56.67c-0.43-0.32-0.75-0.61-1.2-0.68c-0.07,0.18-0.14,0.36-0.21,0.54c0.45,0.18,0.7,0.63,1.3,0.76 C65.01,57.12,65.09,56.92,65.05,56.67z"/><path d="M64.24,44.63c0.17,0.18,0.38,0.26,0.68,0.38c0.07-0.32,0.13-0.64,0.18-0.87c-0.27-0.11-0.65-0.26-1.08-0.43 C63.89,43.9,64.51,44.2,64.24,44.63z"/><path d="M54.19,72.72c-0.07-0.47-0.45-0.49-0.78-0.65c-0.06,0.11-0.12,0.23-0.17,0.34 c-0.09,0.21-0.17,0.43-0.24,0.63C53.54,73.29,54.03,73.5,54.19,72.72z"/><path d="M57.9,37.85c-0.57-0.44-0.82-0.46-0.87-0.11c-0.02,0.12,0.2,0.26,0.09,0.42c-0.05,0.08-0.06,0.17-0.08,0.26 C58.05,38.73,58.05,38.73,57.9,37.85z"/><path d="M73.41,40.94c0.18-0.14,0.25-0.32,0.35-0.56c-0.5-0.09-0.92-0.58-1.53-0.3 C72.26,40.73,72.93,40.65,73.41,40.94z"/><path d="M70.91,40.53c0.46,0.32,0.68,0.09,0.95-0.05c0.09-0.27-0.19-0.47-0.3-0.85 C71.25,39.89,70.44,39.54,70.91,40.53z"/><path d="M37.72,40c0.73-0.02,0.47-0.58,0.72-0.86c-0.23-0.09-0.44-0.17-0.67-0.26C37.77,39.25,37.19,39.49,37.72,40 z"/><path d="M59.36,40.24c-0.59,0.17-0.77,0.48-0.49,0.95c0.4,0.11,0.64-0.05,0.94-0.28 C59.71,40.72,59.6,40.51,59.36,40.24z"/><path d="M65.1,46.01c-0.22,0.23-0.29,0.42-0.4,0.7c0.71-0.08,1.32-0.14,1.35-0.91C65.7,45.7,65.51,45.91,65.1,46.01 z"/><path d="M28.69,43.87c-0.37,0.64,0.18,1,0.43,1.45c-0.01-0.48,0.09-0.89,0.31-1.27 C29.15,43.94,28.94,43.86,28.69,43.87z"/><path d="M35.04,60.12c0.73-0.02,0.47-0.58,0.72-0.86c-0.23-0.09-0.44-0.17-0.67-0.26 C35.08,59.38,34.51,59.61,35.04,60.12z"/><path d="M60.11,23.8c-0.3-0.26-0.53-0.24-0.63-0.06c-0.16,0.29-0.27,0.61-0.4,0.92 C59.88,24.88,60.03,24.41,60.11,23.8z"/><path d="M49.26,60.53c-0.35,0.04-0.58,0.12-0.84,0.21c0.21,0.65,0.67,0.65,1.11,0.67 C49.84,61.07,49.44,60.84,49.26,60.53z"/><path d="M49.37,75.96c-0.22-0.09-0.33-0.13-0.58-0.23c-0.05,0.29-0.34,0.49-0.08,0.87 C49.19,76.83,49.51,76.58,49.37,75.96z"/><path d="M60.51,97.37c-0.38-0.15-0.64-0.31-0.9-0.08c-0.15,0.32,0.27,0.51,0.24,0.76 C60.58,98.17,60.44,97.67,60.51,97.37z"/><path d="M54.73,33.48c0.21-0.04,0.36,0.1,0.66,0.18c0.06-0.26,0.31-0.48,0.09-0.84 C55,32.59,54.67,32.84,54.73,33.48z"/><path d="M55.5,73.11c-0.38-0.15-0.64-0.31-0.9-0.08c-0.15,0.32,0.26,0.51,0.24,0.76 C55.57,73.91,55.44,73.41,55.5,73.11z"/><path d="M68.98,45.93c0.41-0.7-0.11-0.86-0.61-1.03C67.81,45.51,68.62,45.69,68.98,45.93z"/><path d="M66.91,36.47c0.14-0.19,0.16-0.34,0.11-0.46c-0.08-0.18-0.12-0.4-0.43-0.45c-0.41,0.01-0.36,0.38-0.54,0.69 C66.29,36.34,66.52,36.43,66.91,36.47z"/><path d="M48.38,70.43c0.44-0.27,0.44-0.27,0.37-0.76c-0.18-0.12-0.32-0.02-0.47,0.03 c-0.14,0.05-0.27,0.13-0.37,0.18C47.89,70.16,48.01,70.31,48.38,70.43z"/><path d="M33.23,49.63c-0.63-0.12-0.46,0.29-0.54,0.5c-0.04,0.09,0.11,0.3,0.31,0.31c0.1,0.01,0.28-0.03,0.29-0.08 C33.35,50.15,33.79,49.97,33.23,49.63z"/><path d="M73.17,29.81c-0.4-0.82-0.75-0.36-1.12-0.27c0.02,0.35,0.38,0.31,0.57,0.38 C72.81,29.98,73.07,30.34,73.17,29.81z"/><path d="M67.93,48.46c-0.26-0.12-0.41-0.19-0.56-0.26c-0.09,0.23-0.16,0.41-0.24,0.62 c0.19,0.08,0.39,0.16,0.68,0.29C67.9,48.91,67.97,48.71,67.93,48.46z"/><path d="M40.41,79.04c-0.7-0.19-0.35,0.34-0.55,0.47c0.22,0.08,0.43,0.17,0.65,0.25 C40.44,79.53,41.05,79.38,40.41,79.04z"/><path d="M31.77,48.61c-0.18,0.14-0.25,0.32-0.35,0.58c0.23,0.08,0.47,0.16,0.7,0.24c0.08-0.22,0.15-0.4,0.24-0.63 C32.21,48.74,32.05,48.7,31.77,48.61z"/><path d="M33.93,51.95c-0.26-0.12-0.41-0.19-0.56-0.26c-0.09,0.23-0.16,0.41-0.24,0.62 c0.19,0.08,0.39,0.16,0.68,0.29C33.9,52.4,33.97,52.2,33.93,51.95z"/><path d="M62.44,55.54c-0.1,0.23-0.17,0.35-0.23,0.48c0.27,0.11,0.48,0.19,0.72,0.28c0.07-0.17,0.14-0.33,0.25-0.58 C62.94,55.62,62.71,55.53,62.44,55.54z"/><path d="M66.12,56.98c-0.1,0.23-0.17,0.35-0.23,0.48c0.27,0.11,0.48,0.19,0.72,0.28c0.07-0.17,0.14-0.33,0.25-0.58 C66.63,57.06,66.39,56.97,66.12,56.98z"/><path d="M69.08,32.88c0.26,0.12,0.41,0.19,0.56,0.26c0.09-0.23,0.16-0.41,0.24-0.62c-0.19-0.08-0.39-0.16-0.68-0.29 C69.12,32.43,69.04,32.63,69.08,32.88z"/><path d="M59.76,52.35c-0.01-0.27,0.05-0.4,0.11-0.52c-0.28-0.13-0.53-0.11-0.59,0.08c-0.08,0.29,0.1,0.56,0.39,0.75 c0.02,0.01,0.08-0.01,0.1-0.03C59.81,52.59,59.82,52.54,59.76,52.35z"/><path d="M42.02,78.99c-0.39,0.03-0.6,0.13-0.4,0.45c0.09,0.15,0.22,0.2,0.39,0.15 C42.37,79.49,42.29,79.27,42.02,78.99z"/><path d="M62.27,63.39c0.11,0.29,0.13,0.62,0.6,0.89c0.05-0.23,0.1-0.44,0.15-0.65 C62.78,63.53,62.57,63.45,62.27,63.39z"/><path d="M53.61,41.07c0.38-0.62-0.19-0.61-0.5-0.77C53.03,40.68,53.16,40.97,53.61,41.07z"/><path d="M72.32,38.24c0.73,0.41,0.66-0.11,0.81-0.37C72.7,37.76,72.38,37.84,72.32,38.24z"/><path d="M43.76,82.99c0.28-0.12,0.41-0.18,0.84-0.4c-0.54-0.03-0.79-0.05-0.92-0.06 C43.72,82.6,43.07,82.76,43.76,82.99z"/><path d="M71.12,45.51c0.39-0.03,0.6-0.13,0.4-0.45c-0.09-0.15-0.22-0.2-0.39-0.15 C70.77,45.01,70.86,45.23,71.12,45.51z"/><path d="M41.57,32.73c0.39,0.28,0.59,0.2,0.69-0.07C42,32.74,41.75,32.13,41.57,32.73z"/><path d="M52.99,38.38c-0.45,0.06-0.83,0.19-0.03,0.86C52.99,38.89,53.01,38.67,52.99,38.38z"/><path d="M60.73,25.63c0.67,0.3,0.29-0.26,0.53-0.36C60.94,25.15,60.74,25.22,60.73,25.63z"/><path d="M59.78,69.55c-0.31,0.35,0.14,0.53,0.2,0.93C60.37,70.06,59.93,69.85,59.78,69.55z"/><path d="M60.33,71.24c-0.18-0.23-0.39-0.37-0.72-0.58C59.64,71.36,59.83,71.53,60.33,71.24z"/><path d="M56.85,73.58c-0.42-0.54-0.59,0.04-1.12-0.05C56.3,73.99,56.48,73.6,56.85,73.58z"/><path d="M60.2,98.85c0.2,0.05,0.35,0.1,0.36,0.07c0.11-0.19,0.01-0.37-0.21-0.46c-0.22-0.08-0.41-0.02-0.46,0.2 C59.88,98.69,60.02,98.76,60.2,98.85z"/><path d="M55.08,23.43c-0.05-0.21-0.13-0.34-0.24-0.43c-0.08-0.07-0.18-0.01-0.16,0.12 C54.7,23.31,54.8,23.47,55.08,23.43z"/><path d="M61.64,24.63c-0.15,0.13-0.17,0.26-0.14,0.28c0.24,0.1,0.42,0.04,0.49-0.17 C62,24.7,61.86,24.63,61.64,24.63z"/><path d="M54.42,64.71c-0.01-0.12-0.06-0.15-0.11-0.16c-0.22-0.02-0.49,0.05-0.42,0.23 C53.96,65.01,54.21,64.86,54.42,64.71z"/><path d="M58.14,22.69c0.23-0.03,0.36-0.08,0.46-0.17c0.07-0.07,0-0.16-0.15-0.16 C58.24,22.36,58.07,22.44,58.14,22.69z"/><path d="M53.28,69.22c0.1,0.01,0.22-0.03,0.23-0.1c0.03-0.2-0.09-0.45-0.29-0.41 C52.96,68.75,53.17,68.99,53.28,69.22z"/><path d="M52.91,38.24c0.1,0.01,0.22-0.03,0.23-0.1c0.03-0.2-0.09-0.45-0.29-0.41 C52.59,37.77,52.8,38.01,52.91,38.24z"/><path d="M46.95,69.48c0.06,0.21,0.06,0.49,0.4,0.54C47.44,69.74,47.33,69.56,46.95,69.48z"/><path d="M34.85,41.27c-0.15,0.13-0.17,0.26-0.14,0.28c0.24,0.1,0.42,0.04,0.49-0.17 C35.21,41.34,35.07,41.27,34.85,41.27z"/><path d="M48.25,74.21c0,0.09,0.06,0.2,0.14,0.22c0.22,0.05,0.5-0.03,0.43-0.22C48.74,73.98,48.5,74.14,48.25,74.21z"/><path d="M56.19,33.31c0.16-0.06,0.23-0.19,0.01-0.22C56.16,33.09,56.12,33.21,56.19,33.31z"/><path d="M49.3,70.79c-0.16,0.06-0.23,0.19-0.01,0.22C49.33,71.01,49.37,70.9,49.3,70.79z"/><path d="M40.45,31.16c0.09,0.15,0.24,0.22,0.24,0.03C40.7,31.15,40.56,31.1,40.45,31.16z"/><path d="M49.19,28.76c-0.16,0.06-0.23,0.19-0.01,0.22C49.22,28.98,49.27,28.87,49.19,28.76z"/><path d="M55.54,42.96c0.09,0.15,0.24,0.22,0.24,0.03C55.78,42.96,55.65,42.91,55.54,42.96z"/><path d="M50.36,24.5c-0.03,0.17,0.14,0.28,0.23,0.22C50.74,24.6,50.58,24.52,50.36,24.5z"/><path d="M57.71,48.36c0.09,0.15,0.24,0.22,0.24,0.03C57.95,48.36,57.82,48.31,57.71,48.36z"/><path d="M40.76,31.74c0.09,0.15,0.24,0.22,0.24,0.03C41.01,31.73,40.87,31.68,40.76,31.74z"/><path d="M62.69,46.09c0.16-0.06,0.23-0.19,0.01-0.22C62.65,45.87,62.61,45.99,62.69,46.09z"/><path d="M47.68,34.77c-0.16,0.06-0.23,0.19-0.01,0.22C47.71,35,47.75,34.88,47.68,34.77z"/><path d="M55.55,27.37c0.16-0.06,0.23-0.19,0.01-0.22C55.52,27.15,55.48,27.27,55.55,27.37z"/><path d="M54.69,22.37c0.09,0.15,0.24,0.22,0.24,0.03C54.94,22.36,54.8,22.31,54.69,22.37z"/><path d="M54.24,23.9c-0.16,0.06-0.23,0.19-0.01,0.22C54.27,24.12,54.31,24,54.24,23.9z"/><path d="M47.07,35.33c0.09,0.15,0.24,0.22,0.24,0.03C47.31,35.33,47.18,35.28,47.07,35.33z"/><path d="M67.99,48.5c0.09,0.15,0.24,0.22,0.24,0.03C68.23,48.5,68.1,48.44,67.99,48.5z"/><path d="M58.23,24.55c-0.16,0.06-0.23,0.19-0.01,0.22C58.26,24.77,58.3,24.65,58.23,24.55z"/><path d="M44.83,32.87c-0.09-0.15-0.24-0.22-0.24-0.03C44.59,32.87,44.72,32.92,44.83,32.87z"/><path d="M57.95,50.5c-0.09-0.15-0.24-0.22-0.24-0.03C57.7,50.51,57.84,50.56,57.95,50.5z"/><path d="M52.23,39.85c-0.09-0.15-0.24-0.22-0.24-0.03C51.98,39.85,52.12,39.9,52.23,39.85z"/><path d="M67.05,44.72c0.09,0.15,0.24,0.22,0.24,0.03C67.3,44.72,67.16,44.67,67.05,44.72z"/><path d="M52,40.44c0.09,0.15,0.24,0.22,0.24,0.03C52.24,40.44,52.11,40.39,52,40.44z"/><path d="M53.36,69.36c-0.2-0.04-0.3,0.1-0.22,0.18C53.28,69.69,53.36,69.56,53.36,69.36z"/><path d="M50.87,66.87c0.09,0.15,0.24,0.22,0.24,0.03C51.12,66.86,50.98,66.81,50.87,66.87z"/><path d="M58.51,53.33c-0.09-0.15-0.24-0.22-0.24-0.03C58.27,53.33,58.4,53.38,58.51,53.33z"/><path d="M49.87,66.36c0.16-0.06,0.23-0.19,0.01-0.22C49.84,66.14,49.8,66.26,49.87,66.36z"/><path d="M48.64,66.11c0.16-0.06,0.23-0.19,0.01-0.22C48.61,65.89,48.57,66.01,48.64,66.11z"/><path d="M61.21,54.95c-0.16,0.06-0.23,0.19-0.01,0.22C61.24,55.17,61.28,55.05,61.21,54.95z"/><path d="M46.36,91.75c0.09,0.15,0.24,0.22,0.24,0.03C46.61,91.74,46.47,91.69,46.36,91.75z"/><path d="M67.86,50.37c-0.09-0.15-0.24-0.22-0.24-0.03C67.62,50.38,67.75,50.43,67.86,50.37z"/><path d="M36.56,56.68c0.27-0.02,0.38-0.12-0.04-0.24C36.45,56.46,36.52,56.6,36.56,56.68z"/><path d="M60.73,50.66c-0.16,0.06-0.23,0.19-0.01,0.22C60.76,50.88,60.8,50.77,60.73,50.66z"/><path d="M63.4,46.13c-0.09-0.15-0.24-0.22-0.24-0.03C63.15,46.13,63.29,46.18,63.4,46.13z"/><path d="M33.28,41.91c-0.16,0.06-0.23,0.19-0.01,0.22C33.31,42.13,33.36,42.01,33.28,41.91z"/><path d="M41.32,57.91c0.09,0.15,0.24,0.22,0.24,0.03C41.57,57.9,41.43,57.85,41.32,57.91z"/><path d="M37.13,64.01c-0.09-0.15-0.24-0.22-0.24-0.03C36.88,64.02,37.02,64.07,37.13,64.01z"/><path d="M68.77,47.31c-0.09-0.15-0.24-0.22-0.24-0.03C68.53,47.32,68.66,47.37,68.77,47.31z"/><path d="M30.39,48.41c0.09,0.15,0.24,0.22,0.24,0.03C30.64,48.4,30.5,48.35,30.39,48.41z"/><path d="M60.43,51.46c-0.16,0.06-0.23,0.19-0.01,0.22C60.46,51.68,60.5,51.56,60.43,51.46z"/><path d="M30.81,38.67c-0.16,0.06-0.23,0.19-0.01,0.22C30.85,38.89,30.89,38.77,30.81,38.67z"/><path d="M62.37,23.77c0.09,0.15,0.24,0.22,0.24,0.03C62.61,23.77,62.48,23.71,62.37,23.77z"/><path d="M52.71,60c-0.2-0.04-0.3,0.1-0.22,0.18C52.63,60.33,52.71,60.2,52.71,60z"/><path d="M39.18,40.34c0.16-0.06,0.23-0.19,0.01-0.22C39.15,40.12,39.11,40.24,39.18,40.34z"/><path d="M44.22,99.28c0.13-0.26,0.11-0.6,0.36-0.54c0.56,0.14,0.74-0.05,0.83-0.48c0.09-0.42,0.46,0.12,0.51,0.07 c0.57-0.43,0.52-0.98,0.81-1.37c0.65,0.08,0.65,0.08,0.95-0.54c-0.32-0.07-0.69-0.44-0.94-0.15c-0.47,0.54-1.45,0.57-1.64,1.37 c-0.06,0.27-0.23,0.43-0.59,0.29c-0.15-0.06-0.26-0.13-0.35,0.08c-0.33,0.78-1.02,1.23-1.86,1.54 c-0.24,0.09-0.03,0.35,0.04,0.63c-0.56,0.2-1.14,0.4-1.75,0.62c0.17,0.32,0.29,0.55,0.42,0.78c0.26,0.12,0.5-0.04,0.8,0.05 c0.5,0.15,0.92-0.1,0.9-0.56c-0.04-0.8,0.44-1.16,1.14-1.41C43.99,99.61,44.07,99.47,44.22,99.28z"/><path d="M48.96,100.08c-0.15,0.47-0.45,0.73-0.96,0.86c-0.25,0.06-0.46,0.15-0.63,0.39 c-0.28,0.4-0.57,0.79-1.1,0.86c0.19,0.17,0.33,0.36,0.43,0.58c0.12-0.13,0.23-0.25,0.34-0.39c0.34,0.04,0.75-0.04,1.2,0.17 c0.18-0.43,0.26-0.95,1.04-0.96c0.2,0.05,0.36,0.07,0.37,0.05c0.12-0.6,0.22-1.21,0.32-1.8 C49.44,99.61,49.08,99.72,48.96,100.08z"/><path d="M52.92,98.86c0.05-0.4,0.2-0.79-0.18-1.15c-0.29-0.16-0.5,0.11-0.75,0.09c-0.26-0.02-0.53-0.16-0.79-0.24 C50.78,97.45,50.95,98,50.57,98c-0.25,0-0.48,0.15-0.72,0.24c0.1,0.62,0.59,0.78,0.97,0.65c0.39-0.13,0.76,0.08,1.09-0.02 C52.23,98.77,52.51,98.67,52.92,98.86z"/><path d="M58.59,95.49c0.32,0.72,1.02,1.03,1.75,1.32c0.34,0.13,0.19-0.54,0.67-0.22c0.28,0.19,0.85,0.49,0.91-0.06 c0.04-0.39-0.51-0.51-0.9-0.51c-0.58-0.01-1.07-0.17-1.48-0.59C59.2,95.05,58.96,95.45,58.59,95.49z"/><path d="M53.08,98.81c0.04,0.35,0.26,0.56,0.64,0.65c0.39,0.1,0.62-0.06,0.93-0.29 C54.25,98.52,53.74,98.53,53.08,98.81z"/><path d="M56.56,95.78c0.24-0.28,0.36-0.6,0.46-0.86c-0.4-0.13-0.79-0.25-1.22-0.39 C56,94.91,56.22,95.32,56.56,95.78z"/><path d="M57.03,99.72c-0.44-0.32-0.92-0.5-1.3-0.06C56.37,100.49,56.49,100.51,57.03,99.72z"/><path d="M52.51,90.45c-0.27,0.33-0.15,0.61,0.16,0.6c0.24-0.01,0.75-0.01,0.63-0.45 C53.21,90.24,52.93,90.26,52.51,90.45z"/><path d="M55.23,90.94c-0.41-0.2-0.7-0.36-0.99-0.51c-0.21,0.43,0.11,0.62,0.17,0.87 C54.86,91.45,55.17,91.34,55.23,90.94z"/><path d="M81.58,39.71c-0.4,0.41-0.37,0.7,0,0.9C81.82,40.28,81.86,39.98,81.58,39.71z"/><path d="M76.73,43.44c-0.33,0.25-0.32,0.55-0.16,0.83C76.91,44.04,76.69,43.75,76.73,43.44z"/><path d="M82.05,43.27c0.05,0.18,0.14,0.24,0.16,0.22c0.17-0.17,0.18-0.35,0.04-0.49 C82.24,42.98,82.13,43.07,82.05,43.27z"/><path d="M78.76,86.23c-0.36,0.28-0.36,0.61-0.17,0.93C78.98,86.92,78.72,86.59,78.76,86.23z"/><path d="M69.15,27.1c0.15,0.21,0.43,0.3,0.29,0.5c-0.31,0.44-0.22,0.66,0.08,0.89c0.29,0.22-0.26,0.36-0.24,0.42 c0.13,0.64,0.58,0.79,0.78,1.17c-0.3,0.54-0.3,0.54,0.08,1.02c0.17-0.25,0.58-0.45,0.45-0.77c-0.25-0.59,0.07-1.46-0.48-1.9 c-0.19-0.15-0.25-0.35-0.01-0.61c0.1-0.11,0.19-0.18,0.07-0.33c-0.49-0.56-0.59-1.31-0.54-2.15c0.02-0.24-0.26-0.14-0.51-0.18 c0.05-0.55,0.09-1.13,0.14-1.74c-0.31,0.04-0.53,0.07-0.76,0.1c-0.18,0.19-0.14,0.45-0.32,0.68c-0.29,0.38-0.25,0.84,0.11,0.98 c0.64,0.24,0.74,0.78,0.69,1.48C68.98,26.79,69.05,26.91,69.15,27.1z"/><path d="M65.54,30.74c-0.11,0.16-0.18,0.29-0.17,0.3c0.43,0.31,0.86,0.6,1.29,0.9c0.37-0.39,0.41-0.74,0.17-0.96 c-0.32-0.29-0.41-0.64-0.33-1.13c0.04-0.24,0.05-0.46-0.08-0.68c-0.29-0.51-0.55-1.04-0.01-1.81c0.25-0.35-0.1-0.61-0.32-0.81 c-0.35,0.26-0.52,0.85-1.09,0.8c0.44,0.28,0.49,0.78,0.71,1.18c-0.15,0.29-0.23,0.67-0.56,0.99 C65.44,29.8,65.81,30.05,65.54,30.74z"/><path d="M61.23,31.27c0.54-0.15,0.94-0.11,1.02,0.29c0.06,0.3,0.19,0.48,0.38,0.69c0.58-0.32,0.51-1.18,1.44-1.49 c-1.3-0.02-1.3-0.02-2.05-0.75c-0.58,0.47-1.11,0.51-1.63,0.26c-0.24,0.24-0.5,0.52-0.76,0.79 C59.95,31.68,60.58,31.28,61.23,31.27z"/><path d="M69.35,28.92c0.12-0.24,0.48-0.3,0.27-0.53c-0.2-0.22-0.4-0.42-0.55-0.58c-0.47,0.12-0.59,0.55-0.9,0.7 c-0.13-0.23-0.07-0.73-0.54-0.49c-0.44,0.23-0.62,0.68-0.77,1.23c0.49,0,0.86,0.03,1.32-0.37 C68.54,28.6,68.81,29.31,69.35,28.92z"/><path d="M62.37,25.73c-0.01-0.18-0.19-0.32-0.16-0.37c0.41-0.8,0.01-1.06-0.45-1.3c-0.3,0.08-0.41,0.37-0.6,0.53 c0.64,0.5-0.36,1.77,0.5,2.17C62.04,26.58,62.04,26.11,62.37,25.73z"/><path d="M61.71,30.33c-0.29,0.32-0.34,0.57-0.1,0.68c0.18,0.08,0.48-0.18,0.62,0.05c0.07,0.12,0.4,0.14,0.19,0.38 c-0.58,0.68,0.04,0.69,0.27,1.08c0.42-0.54,0.52-0.92,0.44-1.5c-0.09-0.61-0.31-0.82-0.84-0.69 C62.08,30.39,62.08,29.89,61.71,30.33z"/><path d="M65.64,26.2c0.17-0.2,0.27-0.32,0.37-0.44c-0.26-0.15-0.24-0.44-0.21-0.75c0.03-0.25,0.04-0.5,0.06-0.76 c-0.33-0.15-0.68-0.04-1.11,0.09c-0.07,0.88,0.3,1.54,0.45,2.32C65.35,26.51,65.46,26.4,65.64,26.2z"/><path d="M65.95,30.95c-0.6,0.06-0.78,0.41-0.94,0.89c0.42,0.17,1.16-0.09,1.1,0.75c0,0.05,0.13,0.11,0.2,0.11 c0.17,0,0.35-0.04,0.52-0.06c0.1-0.39,0.36-0.83-0.1-0.87c-0.45-0.04-0.22-0.41-0.24-0.65C66.46,30.84,66.27,30.9,65.95,30.95z"/><path d="M64.06,27.81c0.19,0.57,0.71,0.16,0.98,0.36c0.25,0.19,0.57,0.28,0.95,0.45c0.14-0.22,0.28-0.44,0.48-0.75 c-0.13-0.28-0.17-0.88-0.84-0.28c-0.27,0.24-0.41,0.14-0.57-0.03c-0.14-0.14-0.23-0.38-0.6-0.33 C64.34,27.36,64.17,27.55,64.06,27.81z"/><path d="M58.5,27.44c-0.83-0.01-1.21,0.59-1.49,1.38c0.05,0.06,0.15,0.18,0.22,0.26c0.1,0.09,0.15-0.01,0.25-0.06 C58.09,28.69,58.53,28.26,58.5,27.44z"/><path d="M69.02,26.26c0.29-0.34,0.47-0.33,0.65-0.15c0.35,0.36,0.54-0.15,0.79-0.35c-0.18-0.77-0.65-0.34-1.2,0.01 c-0.1-0.21-0.22-0.45-0.47-0.96c-0.21,0.42-0.32,0.6-0.4,0.78C68.13,26.25,68.53,26.31,69.02,26.26z"/><path d="M67.22,22.04c0,0.49,0.38,0.19,0.6,0.22c0.23,0.03,0.31,0.47,0.69,0.12c0.11-0.28,0.27-0.6-0.08-0.8 c-0.43-0.24-0.69-0.95-1.36-0.2c0.24,0.04,0.45-0.02,0.46,0.24C67.54,21.83,67.48,22.03,67.22,22.04z"/><path d="M60.19,29.63c0.6-0.17,0.61-0.17,0.61-0.85c0-0.3,0.73-0.76-0.14-0.85c-0.53,0.25-0.34,0.96-0.63,1.44 C60.01,29.39,60.13,29.49,60.19,29.63z"/><path d="M64.91,21.63c-0.39-0.1-0.55,0.23-0.79,0.47c0.1,0.12,0.21,0.24,0.35,0.41 C64.71,22.27,64.97,22.08,64.91,21.63z"/><path d="M60.17,29.78c-0.27-0.06-0.35,0.27-0.64,0.47c0.18,0.12,0.34,0.22,0.5,0.32c0.11-0.12,0.25-0.28,0.43-0.48 C60.36,30.01,60.26,29.93,60.17,29.78z"/><path d="M70.17,22.26c-0.32-0.48-0.32-0.48-0.96-0.35C69.52,22.01,69.71,22.33,70.17,22.26z"/><path d="M66.99,21.47c-0.58,0.5-0.58,0.5-0.21,0.94c0.1-0.12,0.2-0.23,0.38-0.43 C67.15,21.75,66.94,21.72,66.99,21.47z"/><path d="M63.14,27.32c-0.4,0.55,0.14,0.42,0.17,0.64c0.14-0.16,0.28-0.32,0.42-0.48 C63.53,27.46,63.63,26.88,63.14,27.32z"/><path d="M62.89,29.42c-0.28-0.04-0.5-0.01-1.02,0.06c0.35,0.28,0.5,0.39,0.64,0.51 C62.67,29.81,62.81,29.65,62.89,29.42z"/><path d="M69.44,21.08c-0.16-0.38-0.46-0.07-0.79-0.14C68.83,21.42,69.15,21.1,69.44,21.08z"/><path d="M56.21,23.36c-0.33,0.25-0.32,0.55-0.16,0.83C56.4,23.97,56.17,23.68,56.21,23.36z"/><path d="M67.53,25.02c-0.35-0.43-0.34,0.18-0.57,0.23C67.14,25.43,67.32,25.41,67.53,25.02z"/><path d="M61.54,23.2c0.05,0.18,0.14,0.24,0.16,0.22c0.17-0.17,0.18-0.35,0.04-0.49C61.72,22.91,61.61,23,61.54,23.2 z"/><path d="M62.76,28.46c-0.18,0.09-0.26,0.21-0.24,0.23c0.13,0.15,0.29,0.13,0.45-0.06 C62.99,28.61,62.93,28.51,62.76,28.46z"/><path d="M64.61,23.62c0.15-0.03,0.26-0.13,0.11-0.2C64.69,23.41,64.6,23.51,64.61,23.62z"/><path d="M61.86,31.97c-0.15,0.03-0.26,0.13-0.11,0.2C61.77,32.19,61.86,32.09,61.86,31.97z"/><path d="M65.03,32.01c0.15-0.03,0.26-0.13,0.11-0.2C65.11,31.8,65.02,31.89,65.03,32.01z"/><path d="M57.71,26.94c0.15-0.03,0.26-0.13,0.11-0.2C57.8,26.72,57.71,26.82,57.71,26.94z"/><path d="M62.48,27.67c-0.15,0.03-0.26,0.13-0.11,0.2C62.4,27.88,62.49,27.78,62.48,27.67z"/><path d="M33.46,90.56c-0.22-0.15-0.29-0.35-0.02-0.61c0.11-0.11,0.23-0.18,0.08-0.33 c-0.39-0.39-0.56-0.87-0.62-1.41c-0.51-0.32-0.87-0.87-0.87-1.58c0-0.37,0.12-0.74,0.31-1.05c0-0.01,0-0.02,0-0.02 c-0.3,0.03-0.53,0.06-0.76,0.09c-0.21,0.19-0.17,0.45-0.37,0.68c-0.34,0.38-0.29,0.84,0.13,0.98c0.75,0.24,0.86,0.78,0.8,1.48 c-0.01,0.13,0.08,0.25,0.19,0.44c0.18,0.21,0.5,0.3,0.34,0.5c-0.36,0.44-0.26,0.66,0.09,0.89c0.34,0.22-0.3,0.36-0.27,0.42 c0.16,0.64,0.67,0.79,0.9,1.17c-0.35,0.54-0.35,0.54,0.09,1.02c0.2-0.25,0.68-0.45,0.53-0.77C33.73,91.87,34.1,91,33.46,90.56z"/><path d="M78.51,75.98c0.51,0.28,0.57,0.78,0.82,1.18c-0.17,0.29-0.27,0.67-0.65,0.99c0.32,0.3,0.75,0.56,0.44,1.24 c-0.13,0.16-0.21,0.29-0.2,0.3c0.15,0.09,0.3,0.18,0.44,0.27c-0.02-1.44-0.04-2.88-0.06-4.33 C79.12,75.83,78.89,76.01,78.51,75.98z"/><path d="M74.12,79.92c0.63-0.15,1.09-0.11,1.19,0.29c0.07,0.3,0.23,0.48,0.44,0.69c0.68-0.32,0.59-1.18,1.67-1.49 c-1.51-0.02-1.51-0.02-2.39-0.75c-0.68,0.47-1.29,0.51-1.89,0.26c-0.27,0.24-0.58,0.52-0.89,0.79 C72.62,80.33,73.36,79.93,74.12,79.92z"/><path d="M74.68,78.98c-0.34,0.32-0.4,0.57-0.12,0.68c0.21,0.08,0.56-0.18,0.72,0.05c0.09,0.12,0.46,0.14,0.22,0.38 c-0.67,0.68,0.05,0.69,0.32,1.08c0.48-0.54,0.61-0.92,0.51-1.5c-0.1-0.61-0.36-0.82-0.98-0.69 C75.11,79.04,75.11,78.54,74.68,78.98z"/><path d="M70.94,76.09c-0.96-0.01-1.4,0.59-1.74,1.38c0.06,0.06,0.18,0.18,0.26,0.26c0.12,0.09,0.17-0.01,0.29-0.06 C70.47,77.34,70.98,76.91,70.94,76.09z"/><path d="M72.9,78.28c0.69-0.17,0.71-0.17,0.71-0.85c0-0.3,0.85-0.76-0.16-0.85c-0.62,0.25-0.4,0.96-0.73,1.44 C72.7,78.04,72.84,78.14,72.9,78.28z"/><path d="M72.89,78.43c-0.31-0.06-0.41,0.27-0.75,0.47c0.21,0.12,0.39,0.22,0.58,0.32c0.12-0.12,0.29-0.28,0.5-0.48 C73.1,78.66,72.99,78.58,72.89,78.43z"/><path d="M76.33,75.97c-0.46,0.55,0.16,0.42,0.2,0.64c0.17-0.16,0.33-0.32,0.49-0.48 C76.79,76.11,76.91,75.53,76.33,75.97z"/><path d="M76.05,78.07c-0.33-0.04-0.58-0.01-1.19,0.06c0.41,0.28,0.58,0.39,0.74,0.51 C75.79,78.46,75.96,78.3,76.05,78.07z"/><path d="M75.9,77.11c-0.2,0.09-0.3,0.21-0.28,0.23c0.15,0.15,0.34,0.13,0.52-0.06 C76.16,77.26,76.09,77.16,75.9,77.11z"/><path d="M74.85,80.62c-0.17,0.03-0.3,0.13-0.13,0.2C74.75,80.84,74.85,80.74,74.85,80.62z"/><path d="M78.53,80.66c0.17-0.03,0.3-0.13,0.13-0.2C78.63,80.44,78.53,80.54,78.53,80.66z"/><path d="M75.57,76.32c-0.17,0.03-0.3,0.13-0.13,0.2C75.48,76.53,75.58,76.43,75.57,76.32z"/><path d="M33.39,77.76c-0.24,0.38-0.09,0.93-0.87,1.06c-0.9,0.9-1.85,1.79-1.96,2.95c-0.24-0.1-0.39-0.16-0.51-0.21 c-0.15,0.03-0.26,0.1-0.37,0.18c-0.13,0.61-0.26,1.22-0.39,1.83c0.19-0.26,0.53-0.32,0.77-0.47c1.34-0.88,2.2-1.99,2.85-3.21 c0.29-0.25,0.27,0.32,0.69-0.17c0.63-0.51,0.1-0.62,0.18-0.9c0.42-0.35,0.51,0.01,0.77,0C34.98,77.37,34.97,77.35,33.39,77.76z"/><path d="M69.7,87.04c-0.16,0.08-0.21,0.31-0.26,0.3c-0.85-0.09-0.93,0.41-0.95,0.94c0.19,0.26,0.48,0.26,0.7,0.38 c0.19-0.82,1.68-0.34,1.69-1.33C70.57,87.02,70.16,87.21,69.7,87.04z"/><path d="M68.84,83.67c-0.24-0.09-0.39-0.14-0.53-0.19c-0.03,0.31-0.29,0.41-0.57,0.49 c-0.23,0.07-0.45,0.15-0.69,0.23c0,0.38,0.23,0.68,0.51,1.05c0.79-0.27,1.22-0.89,1.85-1.35 C69.21,83.83,69.08,83.77,68.84,83.67z"/><path d="M70.79,85.67c0.63,0.17,0.31-0.3,0.49-0.41c-0.2-0.08-0.39-0.15-0.58-0.23 C70.75,85.24,70.21,85.36,70.79,85.67z"/><path d="M72.71,85.09c0.08,0.29,0.19,0.49,0.45,0.97c0.11-0.45,0.15-0.64,0.19-0.82 C73.14,85.15,72.94,85.08,72.71,85.09z"/><path d="M70.04,93.96c0.35,0.22,0.6,0.1,0.79-0.17C70.5,93.53,70.33,93.87,70.04,93.96z"/><path d="M67.82,88.84c0.14-0.12,0.15-0.23,0.13-0.24c-0.22-0.09-0.38-0.04-0.44,0.15 C67.5,88.77,67.62,88.84,67.82,88.84z"/><path d="M71.92,85.59c0.15,0.13,0.28,0.17,0.29,0.14c0.08-0.18,0-0.33-0.22-0.41 C71.97,85.31,71.9,85.41,71.92,85.59z"/><path d="M66.99,85.68c-0.08-0.13-0.21-0.2-0.22-0.03C66.77,85.69,66.89,85.73,66.99,85.68z"/><path d="M71.34,86.17c0.08,0.13,0.21,0.2,0.22,0.03C71.56,86.17,71.44,86.12,71.34,86.17z"/><path d="M72.25,86.87c-0.36,0.28-0.36,0.61-0.17,0.93C72.47,87.55,72.21,87.22,72.25,86.87z"/><path d="M74.8,89.55c0.78,0.93,1.7,0.77,2.35,1.5c0.36-0.16,0.73-0.33,1.1-0.49c-0.23-0.12-0.46-0.27-0.74-0.49 c-0.33-0.26-0.66-0.24-0.95-0.44c-0.84-0.57-1.7-0.88-2.54-1.61c-0.17-0.14-0.34-0.27-0.52-0.4c0.43,0.57,0.79,1.13,1.04,1.67 C74.64,89.37,74.72,89.45,74.8,89.55z"/><path d="M66.2,96.45c-0.36-0.4-0.6-0.27-0.76,0.09C65.78,96.99,65.92,96.53,66.2,96.45z"/><path d="M31.86,95.92c0.18,0.21,0.5,0.3,0.34,0.5c-0.36,0.44-0.26,0.66,0.09,0.89c0.34,0.22-0.3,0.36-0.27,0.42 c0.16,0.64,0.67,0.79,0.9,1.17c-0.35,0.54-0.35,0.54,0.09,1.02c0.2-0.25,0.68-0.45,0.53-0.77c-0.29-0.59,0.08-1.46-0.56-1.9 c-0.22-0.15-0.29-0.35-0.02-0.61c0.11-0.11,0.23-0.18,0.08-0.33c-0.57-0.56-0.69-1.31-0.63-2.15c0.02-0.24-0.3-0.14-0.59-0.18 c0.05-0.55,0.11-1.13,0.16-1.74c-0.36,0.04-0.62,0.07-0.88,0.1c-0.21,0.19-0.17,0.45-0.37,0.68c-0.34,0.38-0.29,0.84,0.13,0.98 c0.75,0.24,0.86,0.78,0.8,1.48C31.65,95.61,31.74,95.73,31.86,95.92z"/><path d="M27.87,97.33c-0.17,0.29-0.27,0.67-0.65,0.99c0.32,0.3,0.75,0.56,0.44,1.24c-0.13,0.16-0.21,0.29-0.2,0.3 c0.16,0.1,0.33,0.2,0.49,0.3c0.43,0.09,0.86,0.17,1.28,0.26c0.14-0.25,0.12-0.47-0.08-0.62c-0.37-0.29-0.48-0.64-0.39-1.13 c0.04-0.24,0.05-0.46-0.09-0.68c-0.33-0.51-0.64-1.04-0.01-1.81c0.29-0.35-0.12-0.61-0.37-0.81c-0.41,0.26-0.6,0.85-1.27,0.8 C27.56,96.43,27.62,96.92,27.87,97.33z"/><path d="M32.09,97.74c0.14-0.24,0.56-0.3,0.32-0.53c-0.23-0.22-0.47-0.42-0.64-0.58c-0.54,0.12-0.69,0.55-1.04,0.7 c-0.15-0.23-0.08-0.73-0.63-0.49c-0.52,0.23-0.72,0.68-0.9,1.23c0.57,0,1,0.03,1.54-0.37C31.14,97.41,31.46,98.13,32.09,97.74z"/><path d="M27.77,95.02c0.2-0.2,0.31-0.32,0.43-0.44c-0.31-0.15-0.28-0.44-0.24-0.75c0.04-0.25,0.05-0.5,0.07-0.76 c-0.38-0.15-0.79-0.04-1.29,0.09c-0.09,0.88,0.35,1.54,0.53,2.32C27.44,95.33,27.56,95.22,27.77,95.02z"/><path d="M25.94,96.63c0.23,0.57,0.83,0.16,1.14,0.36c0.29,0.19,0.66,0.28,1.1,0.45c0.16-0.22,0.33-0.44,0.56-0.75 c-0.16-0.28-0.2-0.88-0.98-0.28c-0.31,0.24-0.47,0.14-0.66-0.03c-0.16-0.14-0.27-0.38-0.7-0.33 C26.26,96.18,26.06,96.37,25.94,96.63z"/><path d="M31.7,95.07c0.34-0.34,0.54-0.33,0.75-0.15c0.41,0.36,0.63-0.15,0.91-0.35c-0.21-0.77-0.76-0.34-1.4,0.01 c-0.12-0.21-0.26-0.45-0.55-0.96c-0.25,0.42-0.38,0.6-0.46,0.78C30.67,95.07,31.13,95.12,31.7,95.07z"/><path d="M29.61,90.86c0,0.49,0.44,0.19,0.7,0.22c0.27,0.03,0.35,0.47,0.8,0.12c0.13-0.28,0.32-0.6-0.09-0.8 c-0.5-0.24-0.8-0.95-1.58-0.2c0.28,0.04,0.52-0.02,0.53,0.24C29.98,90.65,29.92,90.85,29.61,90.86z"/><path d="M30.01,86.63c0.24,0.22,0.38,0.43,0.73,0.27c0.32-0.27,0.05-0.54,0.22-0.77 C30.4,85.86,30.23,86.37,30.01,86.63z"/><path d="M33.04,91.08c-0.37-0.48-0.37-0.48-1.12-0.35C32.28,90.82,32.5,91.15,33.04,91.08z"/><path d="M30.57,87.47c-0.5-0.33-0.49,0.24-0.74,0.32c0.14,0.13,0.27,0.25,0.41,0.38 C30.33,87.94,30.93,87.93,30.57,87.47z"/><path d="M29.35,90.29c-0.68,0.5-0.68,0.5-0.24,0.94c0.12-0.12,0.23-0.23,0.44-0.43 C29.53,90.57,29.28,90.54,29.35,90.29z"/><path d="M32.19,89.89c-0.19-0.38-0.54-0.07-0.92-0.14C31.48,90.23,31.86,89.92,32.19,89.89z"/><path d="M29.97,93.84c-0.4-0.43-0.4,0.18-0.66,0.23C29.51,94.25,29.73,94.23,29.97,93.84z"/><path d="M30.1,83.91c0.02-0.31,0.34-0.67-0.03-0.8C29.82,83.43,29.76,83.74,30.1,83.91z"/><path d="M30.08,86.82c0.17-0.03,0.3-0.13,0.13-0.2C30.17,86.6,30.07,86.7,30.08,86.82z"/><path d="M30.43,100.64c0.03-0.15,0.08-0.3,0.23-0.45c0.22,0.02,0.27,0.31,0.62,0.13c0.41-0.27,0.15-0.61,0.42-0.84 c0.29-0.25,0.77-0.31,0.75-0.79c-0.02-0.46,0.54-0.35,0.73-0.61c-0.14-0.56-0.78-0.4-1.27-0.15c-0.4,0.21-0.82,0.7-1.1,1.11 c-0.41,0.61-0.7,1.01-1.2,1.45C29.89,100.54,30.16,100.59,30.43,100.64z"/><path d="M37.61,98.2c1.04-0.81,1.56,0.74,2.11-0.3c0.29-0.25,0.27,0.32,0.69-0.17c0.63-0.51,0.1-0.62,0.18-0.9 c0.42-0.35,0.51,0.01,0.77,0c0.43-1.46,0.41-1.48-1.17-1.07c-0.24,0.38-0.09,0.93-0.87,1.06c-0.9,0.9-1.85,1.79-1.96,2.95 c-0.24-0.1-0.39-0.16-0.51-0.21c-0.43,0.1-0.63,0.45-0.9,0.69c-0.06,0.05-0.11,0.1-0.17,0.15 C36.33,100.52,37.07,98.11,37.61,98.2z"/><path d="M33.24,96.81c-0.12,0.19-0.14,0.29-0.19,0.52c0.51-0.3,0.96-0.65,1.42-0.83c0.48-0.19,0.98-0.13,1.38-0.73 c0.02-0.51-1.03-0.09-0.8-0.81C34.22,95.37,33.99,96.19,33.24,96.81z"/><path d="M35.87,94.44c-0.04,0.28-0.05,0.41-0.09,0.85c0.31-0.48,0.45-0.7,0.52-0.81 C36.23,94.5,36.43,93.87,35.87,94.44z"/><path d="M58.43,95.55c-0.11-0.36-0.4-0.29-0.53-0.11c-0.17,0.22,0.01,0.43,0.31,0.53 C58.26,95.83,58.31,95.7,58.43,95.55z"/><path d="M50.75,101.6c-0.09-0.15-0.24-0.22-0.24-0.03C50.5,101.6,50.64,101.65,50.75,101.6z"/></g></g></g><g opacity="0.51"><g><g fill="#ffffff" id="change2_3"><path d="M59.15,69.45c0.38-0.15-0.23-0.54,0.07-0.83c0.36-0.35,0.41-0.55,0.13-0.8c0.33-0.98,0.66-1.96,0.99-2.94 c0.04,0.09,0.06,0.18,0.05,0.28c-0.02,0.18,0.56,0.43,0.8,0.74c0.35,0.46,0.05,0.71,0.05,1.05c0,0.32,0.75,0.39,0.66,0.89 c-0.08,0.41,0.25,0.98,0.05,1.5c-0.31-0.17-0.63-0.34-0.99-0.54C61.15,70.19,60.95,70.25,59.15,69.45z"/><path d="M72.26,41.97c-0.08-0.04-0.23-0.1-0.23-0.13C72.01,41.66,72.17,41.74,72.26,41.97z"/><path d="M67.47,46.07c0.03-0.25-0.25-0.6-0.25-0.95c0.47-0.98,0.92-1.96,1.31-2.96c0.73,0.39,1.41,0.78,2.08,0.95 c-0.1,0.29-0.21,0.58-0.29,0.81c-0.08-0.09-0.27-0.3-0.53-0.61c-0.4,0.23-1.01-0.01-1.51,0.02c-0.02,1.13,0.98,2.45,0.05,3.36 C68,46.54,67.38,46.82,67.47,46.07z"/><path d="M60.1,77.03c0.03-0.4-0.31-0.78-0.83-1.12c-0.61-0.4-1.04-0.96-0.65-1.37c0.41-0.43,0.27-0.88-0.1-1.42 c-0.26-0.37-0.53-0.74-0.8-1.1c0.06-0.12,0.13-0.24,0.18-0.36c0.09-0.05,0.13-0.12,0.1-0.21c0.2-0.45,0.36-0.92,0.54-1.38 c0.23,0.13,0.48,0.41,0.83,0.89c-0.27,0.07-0.59,0.18-0.35,0.34c0.7,0.48,0.02,1.25,1.11,1.59c-0.44,0.68,0.39,1.61,0.2,2.33 c-0.09,0.36,0.09,0.64,0.45,0.89c0.19,0.13,0.47,0.16,0.32,0.39c-0.24,0.37,0.21,0.93-0.08,1.29 C60.62,77.61,60.06,77.62,60.1,77.03z"/><path d="M66.85,64.29c0-0.01,0.01-0.03,0.01-0.04c0.17-0.7,0.35-1.4,0.53-2.1c-0.1-0.28-0.29-0.55-0.74-0.78 c-0.08-0.04-0.22-0.16-0.22-0.16c0.51-0.6-0.58-1.29-0.57-1.86c0.02-0.55-0.53-0.32-0.69-0.54c-0.01,0.8-0.02,1.61,0.51,2.46 c0.2,0.33-0.16,0.52-0.03,0.77c0.27,0.54,0.22,1.08,0.67,1.62C66.49,63.86,66.7,64.08,66.85,64.29z"/><path d="M59.51,70.92c0.21,0.52,0.67,0.73,1.21,0.66c0.36-0.04,0.68-0.17,1-0.26c0.43,0.24,0,0.38,0.21,0.62 c0.39,0.46,0.75,0.92,0.74,1.46c0,0.25,0.37,0.53,0.83,0.68c0.36-0.82,0.17-1.56-0.47-2.66c-0.32-0.54-0.31-1.08-0.09-1.59 c-0.28-0.1-0.55-0.2-0.75-0.27c-0.48-0.01-0.27,0.42-0.62,0.51c-0.21,0.05-0.15,0.32-0.66,0.2 C60.25,70.1,59.99,70.64,59.51,70.92z"/><path d="M72.73,46.36c-0.42,0.2-0.48,0.67-0.59,1.1c0.5,0.11,0.68,0.45,0.87,0.85c0.06,0.71,0.07,0.8-0.21,1.14 c0.39,0,0.8,0.13,1.14,0.38c0.12-0.12,0.27-0.22,0.42-0.29c-0.21-0.24-0.38-0.48-0.37-0.77c0.06-1.05-0.46-2.2-0.52-3.29 c-1.44-0.63-1.44-0.63-1.93,0.08C71.8,45.93,72.45,45.82,72.73,46.36z"/><path d="M46.27,28.65c0.75,0.23,1.1,0.01,1.02-0.69c-0.04-0.37,0.09-0.67-0.29-1.24c-0.54-0.81-0.37-0.99,0.41-1.43 c-0.1-0.34-0.2-0.67-0.31-1.03c-1.34-0.71-1.75,0.19-2.43,0.62c0.27,0.56,0.73,0.58,1.09,0.86c0.26,0.47-0.47,0.81,0.4,1.41 c0.13,0.09,0.29,0.63,0.07,0.86C46.15,28.1,45.77,28.15,46.27,28.65z"/><path d="M58.62,91.29c-0.61-0.47-0.8,0.15-1.19-0.06c-0.61-0.33-1.01-0.17-1.45-0.06 c-0.09,0.02-0.26,0.01-0.31-0.03c-0.71-0.66-1.31-0.35-1.98-0.41c-0.06-0.01-0.12-0.01-0.19-0.01 c-0.12-0.26-0.25-0.51-0.41-0.74c0.38-0.08,0.61-0.16,0.99-0.07c0.93,0.21,1.99,0.58,2.75,0.34c0.77-0.24,1.35,0.08,1.95,0.56 c0.58-0.59,0.58-0.59,1.61-0.01c-0.21,0.24-0.41,0.48-0.6,0.71C59.37,91.43,58.86,91.48,58.62,91.29z"/><path d="M40.17,29.83c-0.32-0.03-0.44,0.54-0.97-0.09c-0.21,0.26-0.44,0.07-0.75-0.18 c-0.13,0.13-0.26,0.25-0.39,0.38c0.05,0.04,0.11,0.08,0.17,0.14c0.06,0.06,1.25,0.41,1.36,0.4c0.29-0.03,0.43,0.35,0.71,0.65 c0.66,0.24,0.66-0.37,0.92-0.68c0.09-0.11-0.1-0.49-0.14-0.69C40.43,29.15,40.51,29.86,40.17,29.83z"/><path d="M63.05,56.04c0.23,0.43,0.57,0.84,0.81,1.26c0.21,0.37,0.6,0.39,0.91,0.56c0.66-0.77-0.32-1.81-0.35-2.69 c-0.22-0.11-0.49-0.25-0.78-0.39C63.24,55.16,63.28,55.64,63.05,56.04z"/><path d="M55.58,83.08c-0.05,0.21-0.08,0.33-0.11,0.45c0.93,0.46,0.63-0.84,1.53-0.38c0.78,0.4,0.38-1.08,1.4-0.18 c0.01-0.31,0.29-0.5-0.01-0.82c-0.11-0.05-0.27-0.15-0.31-0.14C57.3,82.39,55.99,82.16,55.58,83.08z"/><path d="M67.14,54.53c0.02-0.63,0.01-1.17,0-1.75c-1.44-0.12-0.92,0.91-1.33,1.36 C66.28,54.51,66.65,54.78,67.14,54.53z"/><path d="M63.6,74.21c-0.3,0.25-0.69,0.48-0.74,0.97c0.44,0.48,1.03,0.73,1.75,0.91c0.69-0.23,0.7-0.29,0.09-0.6 c-0.22-0.11-0.46-0.19-0.78-0.31c0.12-0.21,0.23-0.43,0.35-0.64C63.98,74.42,63.82,74.35,63.6,74.21z"/><path d="M68.17,49.78c0.27,0.49,0.56,0.89,0.85,1.3c1.13-0.37,1.15-0.91,0.12-1.6 C68.51,49.04,68.58,49.72,68.17,49.78z"/><path d="M64.47,54.67c0.23,0.27,0.62,0.17,0.56,0.47c-0.04,0.2-0.1,0.39-0.19,0.7c0.8-0.26,1.82,0.2,2.36-0.4 c-0.51-0.17-0.95-0.47-1.47-0.46c-0.51,0.01-0.77-0.72-1.33-0.58C64.37,54.42,64.38,54.49,64.47,54.67z"/><path d="M66.27,79.38c0.46-0.18-0.05-0.46-0.15-0.7c-0.11-0.25,0.26-0.48-0.3-0.76c-0.33-0.02-0.73-0.07-0.7,0.36 c0.03,0.53-0.48,1.05,0.63,1.48c-0.11-0.26-0.29-0.46-0.05-0.56C65.88,79.13,66.1,79.11,66.27,79.38z"/><path d="M64.56,84.24c0.2-0.24,0.26-0.44,0.3-0.58c-0.31-0.41-0.68-0.45-1.03-0.56c-0.28,0.3-0.7,0.51-0.74,1 C63.56,84.46,64,84.47,64.56,84.24z"/><path d="M68.51,47.04c-0.59,0.03-0.98,0.16-0.77,0.69c0.57,0.06,0.18,0.52,0.44,0.55c0.42,0.05,0.54,0.71,1.13,0.43 C69.15,48.2,68.65,47.64,68.51,47.04z"/><path d="M79.43,45.68c0.77-0.25,0.19-0.8,0.31-1.1c-0.41-0.36-0.72,0.04-1.06-0.29c-0.47,0.26,0.03,0.8-0.11,1.15 C78.81,45.54,79.04,45.63,79.43,45.68z"/><path d="M60.37,93.9c-0.17-0.36-0.37-0.63-0.57-0.91c-0.75,0.06-0.75,0.06-1,0.58c0.25,0.16,0.42,0,0.66,0.06 c0.31,0.17-0.06,0.27,0.09,0.43c0.22,0.08,0.45,0.18,0.69,0.27C60.27,94.22,60.31,94.1,60.37,93.9z"/><path d="M60.29,86.13c0.74-0.18-0.03-0.76,0.22-1.02c-0.49-0.07-0.76,0.12-1.1,0.19c-0.13,0.23,0.33,0.57,0.06,0.78 C59.73,86.09,60.04,86.61,60.29,86.13z"/><path d="M54.93,84.42c-1.01-0.77-1.01-0.77-1.3-0.24c0.38,0.15,0.8,0.31,1.25,0.49 C54.88,84.76,54.89,84.63,54.93,84.42z"/><path d="M40.92,28.5c0.54,0.96,0.54,0.96,1.06,0.38C41.65,28.62,41.33,28.02,40.92,28.5z"/><path d="M43.2,31.21c-0.24-0.22-0.37-0.34-0.51-0.46c-0.1,0.14-0.19,0.28-0.29,0.42c0.45,0.52,0.88,0.85,1.31,0.52 C43.57,31.56,43.43,31.43,43.2,31.21z"/><path d="M62.11,80.5c0.08-0.29,0.21-0.49-0.13-0.75c-0.42-0.19-0.53,0.14-0.83,0.07 C61.2,80.42,61.75,80.4,62.11,80.5z"/><path d="M56.52,93.27c0.66,0.32,1.02,0.26,1.38-0.17c-0.64,0.1-1.16-0.12-1.64-0.33 C56.13,92.96,56.32,93.09,56.52,93.27z"/><path d="M64.71,76.23c-0.26,0.5-0.26,0.5,0.25,1.12C64.86,77,65.05,76.69,64.71,76.23z"/><path d="M62.61,79.7c-0.05,0.56,0.48,0.35,0.68,0.55c0.05-0.17,0.09-0.33,0.14-0.5 C63.17,79.76,62.85,79.22,62.61,79.7z"/><path d="M65.87,79.82c0.82,0.43,0.82,0.43,1-0.11c-0.17-0.06-0.34-0.13-0.63-0.24 C66.04,79.55,66.14,79.79,65.87,79.82z"/><path d="M64.04,77.41c-0.26,0.3,0.21,0.5,0.34,0.87C64.72,77.92,64.23,77.7,64.04,77.41z"/><path d="M34.15,66.57c-0.62,0.49-1.27,0.53-2.06,0.16c0.13,0.73-0.06,1.33-0.43,1.75c0.32-0.3,0.45-0.83,0.86-0.88 c0.7-0.07,1.44-0.19,2.21,0.05c0.15,0.16,0.17,0.35,0.12,0.42c0.34,0.13,0.74,0.29,1.08,0.42c0-0.57,0.19-1.4-0.06-2.27 C35.19,66.18,34.71,66.13,34.15,66.57z"/><path d="M33.35,58.78c0.19,0.52,0.41,0.93,0.63,1.35c1.17-0.48,1.27-1.07,0.37-1.75 C33.8,57.95,33.77,58.68,33.35,58.78z"/><path d="M34.11,55.77c-0.58,0.08-0.99,0.24-0.86,0.8c0.55,0.02,0.1,0.55,0.35,0.57c0.41,0.03,0.42,0.74,1.05,0.38 C34.56,56.99,34.16,56.41,34.11,55.77z"/><path d="M47.66,30.26c0.35-0.08,0.68-0.25,0.99-0.49c0.17-0.08,0.91-0.5,1.07-0.7c-0.08,0.05-0.17,0.1-0.25,0.15 c0.09-0.05,0.18-0.11,0.27-0.16c0.02,0.09,0.03,0.18-0.01,0.31c-0.08,0.35-0.44,0.45-0.42,1c0.2-0.06,0.39-0.09,0.43,0.33 c-0.24,0.86-0.99,1.61-0.51,2.64c0.11,0.24-0.18,0.52-0.19,0.7c-0.02,0.47-0.37,0.88-0.3,1.16c0.19,0.79-0.14,1.66-0.12,2.63 c-0.25-0.06-0.46-0.11-0.67-0.16c-0.07,0.55,0.24,0.75,0.18,0.92c-0.34,0.98-0.24,2.07-0.66,3.03c0.03,0.51,0.44,0.6,0.34,1.28 c-0.17,0.27-0.33,0.53-0.5,0.79c-0.11-0.16-0.12-0.56-0.36-0.39c-0.04,0.4,0.05,0.57,0.35,0.54c0.13,0.15,0.28,0.25,0.18,0.5 c-0.18,0.44-0.41,0.8-0.68,1.07c-0.47-0.43-0.55-1.26-0.29-2.22c0.15-0.55,0.08-1.21,0.2-1.43c0.39-0.74,0.08-1.02-0.07-1.15 c-0.25-0.22-0.7-0.06-0.82,0.54c-0.22,1.14-0.85,1.52-1.14,2.33c-0.13,0.8-0.19,1.48-0.11,2.12c0.02,0.15-0.05,0.37-0.08,0.56 c-0.33,0.02-0.64,0.05-0.96,0.07c-0.16,0.25-0.36,0.48-0.48,0.79c-0.21,0.51-0.23,1.29-0.75,1.21c-0.13-0.02-0.51,0.6-0.55,0.91 c-0.08,0.72-0.4,0.98-0.63,1.42c-0.58,1.14-1.07,2.44-1.79,3.34c-0.22,0.28-0.21,0.67-0.23,0.99c-0.03,0.61-0.23,0.4-0.39,0.52 c-0.09,0.07-0.32,0.29-0.12,0.71c0,0.02,0.21-0.34,0.19,0.09c-0.21,0.33-0.43,0.68-0.87,1.38c-0.16-0.06-0.48-0.18-0.77-0.29 c-0.28,0.89-0.44,1.23-0.87,1.58c-0.21,0.17-0.43,0.44-0.48,0.7c-0.13,0.8-0.54,1.39-0.72,2.2c-0.42-0.01-0.81,0.11-1.17,0.33 c0.2-0.48,0.4-0.95,0.6-1.43c0,0,0,0,0,0c0-0.01,0-0.01,0-0.02c0.37-0.92,0.73-1.85,1.07-2.78c0.05,0.16,0.17,0.21,0.22,0.08 c0.08-0.21-0.01-0.24-0.17-0.23c0.4-1.08,0.79-2.16,1.18-3.25c0.12-0.05,0.24-0.1,0.35-0.12c0.23-0.05,0.46-0.11,0.7-0.17 c0.05-0.38,0.11-0.79,0.16-1.21c0.32-0.59,0.81-0.24,1.07-0.98c0.25-0.7,0.51-1.23,0.95-1.29c0.17-0.41-0.08-1.27,0.5-1.29 c0.06-1.13,0.91-1.38,1.02-2.54c0.04-0.39,0.47-0.03,0.61-0.53c0.11-0.4,0.06-0.95,0.2-1.25c0.28-0.6,0.65-1.08,0.96-1.57 c0.15-0.43-0.27-0.66,0.08-1.13c0.4-0.55,0.67-1.07,0.49-2c-0.1-0.5,0.19-1.33,0.34-2.02c0.15-0.72,0.69-0.15,0.63-1.11 c-0.38-0.69-0.96,0.11-1.48,0.19c0.13,1.07-0.58,1.57-0.8,2.49c-0.22,0.95-0.6,1.94-1.11,2.52c0.05,0.43,0.4,0.15,0.3,0.37 c-0.35,0.72-0.04,1.29-0.21,1.94c-0.32,0.04-0.65,0.71-1.03,0.3c-0.03-0.1,0.16-0.56,0-0.68c-0.11,0-0.2-0.06-0.25,0 c0,0-0.01,0.01-0.01,0.01c0.59-1.79,1.16-3.58,1.71-5.37c1.69-2.72,3.42-5.43,5.02-8.22C47.24,30.64,47.45,30.45,47.66,30.26z"/><path d="M35.72,55.69c-0.13,0.16-0.21,0.25-0.3,0.34c0.24,0.22,0.42,0.39,0.63,0.58c0.09-0.12,0.19-0.25,0.33-0.43 C36.18,55.99,35.97,55.8,35.72,55.69z"/><path d="M31.08,59.94c0.06,0.31,0.03,0.64,0.42,1.09c0.09-0.19,0.17-0.37,0.25-0.54 C31.54,60.3,31.35,60.13,31.08,59.94z"/><path d="M59.52,81.36c-0.3,0.09-0.8-0.07-0.73,0.31C59.22,81.78,59.53,81.73,59.52,81.36z"/><path d="M75.06,47.93c0.03,0.11,0.09,0.14,0.14,0.15c0.23,0.04,0.5-0.02,0.4-0.19 C75.48,47.68,75.25,47.81,75.06,47.93z"/><path d="M62.25,80.37c-0.11-0.14-0.28-0.22-0.25-0.04C62,80.36,62.15,80.42,62.25,80.37z"/><path d="M71.66,46.19c0.11,0.14,0.28,0.22,0.25,0.04C71.91,46.21,71.76,46.15,71.66,46.19z"/><path d="M76.34,42.53c0-0.16-0.19-0.27-0.27-0.22C75.93,42.41,76.11,42.5,76.34,42.53z"/><path d="M76.49,42.49c0,0.16,0.19,0.27,0.27,0.22C76.89,42.62,76.72,42.53,76.49,42.49z"/><path d="M46.97,22.55c0.06,0.18,0.19,0.31,0.22,0.14C47.2,22.65,47.08,22.55,46.97,22.55z"/><path d="M45.16,27.38c0.16,0.01,0.24-0.07,0.04-0.2C45.16,27.16,45.11,27.25,45.16,27.38z"/></g></g></g></g><g><g fill="#8b73ff" id="change3_1"><path d="M62.43,84.6c-1.29,2.14-3.43,3.92-5.92,4.14s-5.18-1.48-5.28-3.99l22.74-64.92 c-0.62,0.04-1.25,0.08-1.87,0.12c-6.57,2.97-13.79,4.5-20.99,4.4c-4.96,19.58-9.92,39.16-14.88,58.73 c-0.86,3.4-1.69,7.12-0.2,10.29c1.81,3.84,6.47,5.49,10.72,5.62c6.34,0.2,12.59-2.13,17.78-5.76c5.19-3.63,9.41-8.52,12.99-13.75 c-4.26-0.66-8.51-1.33-12.77-1.99C64.28,79.97,63.72,82.46,62.43,84.6z"/><path d="M82.35,39.63c-15.8,1.33-31.72,1.33-47.52-0.01l-3.9,4.82c15.42,0.36,31.17,0.49,46.59,0.85 c2.42-3.11,2.57-2.55,4.94-5.59C82.43,39.68,82.39,39.66,82.35,39.63z"/></g></g></svg>